<svg id="Layer_1" data-name="Layer 1" xmlns="http://www.w3.org/2000/svg" viewBox="0 0 1117.08 872.01"><defs><style>.cls-1,.cls-105{fill:#040303;}.cls-2{fill:#fda1fd;}.cls-3{fill:#050404;}.cls-4{fill:#050304;}.cls-5{fill:#020101;}.cls-6{fill:#0b0406;}.cls-7{fill:#0b0507;}.cls-8{fill:#0c090a;}.cls-9{fill:#1d1215;}.cls-10{fill:#322629;}.cls-11{fill:#565656;}.cls-12{fill:#878787;}.cls-13{fill:#c99dae;}.cls-14{fill:#b795a0;}.cls-15{fill:#b48c9a;}.cls-16{fill:#a98490;}.cls-17{fill:#947f88;}.cls-18{fill:#a5808d;}.cls-19{fill:#bd95a3;}.cls-20{fill:#88757b;}.cls-21{fill:#47222f;}.cls-22{fill:#9d828b;}.cls-23{fill:#7c646c;}.cls-24{fill:#492230;}.cls-25{fill:#75656b;}.cls-26{fill:#7a6c71;}.cls-27{fill:#3e1e29;}.cls-28{fill:#0c0407;}.cls-29{fill:#0f0409;}.cls-30{fill:#65565b;}.cls-31{fill:#361b25;}.cls-32{fill:#030303;}.cls-33{fill:#0b0608;}.cls-34{fill:#0d0709;}.cls-35{fill:#0c0708;}.cls-36{fill:#3d1b27;}.cls-37{fill:#2d151e;}.cls-38{fill:#28121a;}.cls-39{fill:#3c1825;}.cls-40{fill:#2a121b;}.cls-41{fill:#894f65;}.cls-42{fill:#876d77;}.cls-43{fill:#8a747b;}.cls-44{fill:#b06d86;}.cls-45{fill:#6a575d;}.cls-46{fill:#371220;}.cls-47{fill:#774458;}.cls-48{fill:#7a5764;}.cls-49{fill:#532939;}.cls-50{fill:#806971;}.cls-51{fill:#af939c;}.cls-52{fill:#786269;}.cls-53{fill:#cf9cae;}.cls-54{fill:#b899a3;}.cls-55{fill:#fbfbfb;}.cls-56{fill:#fafafa;}.cls-57{fill:#f8f8f8;}.cls-58{fill:#f7f7f7;}.cls-59{fill:#f5f5f5;}.cls-60{fill:#e6e6e6;}.cls-61{fill:#1d0f14;}.cls-62{fill:#b7b7b7;}.cls-63{fill:#ececec;}.cls-64{fill:#656565;}.cls-65{fill:#414141;}.cls-66{fill:#efefef;}.cls-67{fill:#3a222a;}.cls-68{fill:#747474;}.cls-69{fill:gray;}.cls-70{fill:#757575;}.cls-71{fill:#696969;}.cls-72{fill:#5b5b5b;}.cls-73{fill:#404040;}.cls-74{fill:#a0878f;}.cls-75{fill:#737373;}.cls-76{fill:#806e75;}.cls-77{fill:#5f5f5f;}.cls-78{fill:#7b7b7b;}.cls-79{fill:#6e6e6e;}.cls-80{fill:#686868;}.cls-81{fill:#7a7a7a;}.cls-82{fill:#cdcdcd;}.cls-83{fill:#646464;}.cls-84{fill:#797979;}.cls-85{fill:#464646;}.cls-86{fill:#787878;}.cls-87{fill:#868686;}.cls-88{fill:#bb9aa6;}.cls-89{fill:#2f1921;}.cls-90{fill:#a88c96;}.cls-91{fill:#715d63;}.cls-92{fill:#4c2432;}.cls-93{fill:#51474a;}.cls-94{fill:#d8a5b8;}.cls-95{fill:#b493a0;}.cls-96{fill:#5f2d40;}.cls-97{fill:#d3d5d5;}.cls-98{fill:#e6e5e6;}.cls-99{fill:#9c9c9c;}.cls-100{fill:#dfa8bd;}.cls-101{fill:#7e7f7e;}.cls-102{fill:#656665;}.cls-103{fill:#959595;}.cls-104{fill:#8a8a8a;}.cls-105{stroke:#000;stroke-miterlimit:10;stroke-width:5px;}.cls-106{fill:#f831e6;}.cls-107{fill:#f83ee8;}.cls-108{fill:#f837e7;}.cls-109{fill:#f83be8;}.cls-110{fill:#f83ae7;}.cls-111{fill:#fb70f2;}.cls-112{fill:#fecbfc;}.cls-113{fill:#f730e6;}.cls-114{fill:#fb6ff2;}.cls-115{fill:#fa6ff1;}.cls-116{fill:#bd57b7;}.cls-117{fill:#be59b8;}.cls-118{fill:#f96cf0;}.cls-119{fill:#755775;}.cls-120{fill:#b857b3;}.cls-121{fill:#8f488c;}.cls-122{fill:#9d4d99;}.cls-123{fill:#734b74;}.cls-124{fill:#ab2ea1;}</style></defs><title>ethsafari-logo-icon</title><path class="cls-1" d="M963.51,134.75q-7.23,13.78-14.48,27.57l1.49,1.06c3.73-4.18,7.76-8.14,11.07-12.63,2.19-3,3.28-1.14,5.19-.08,3.63,2-.76,3.92.09,6.15s6.59-4.64,3.73,2.18c-.9,2.15-2.76,3.88-4.13,5.84-.57.8-1,1.69-2.6,4.39L974,163.79c.9,3.21-2.24,4.69-2.74,7.26-.65,3.45-3.77,7.18,3.06,8.06,5.5.71-1.69,3.76,1.15,5.68,3.37-.54,5.46-4,8.72-5.43,3.82.52,2.09,3.12,1.92,5.13.29,1.35-1.17,5.35,1.12,3.53,4.71-3.74,10.24.7,14.2-3.48,1.25,3.26-3.72,2.86-2.41,5.31.74,1.37,2.58,1.51,4.18.93a65.25,65.25,0,0,1,9.29-2.85c-5.44,2.23,1.25,9.4-6.35,11.3,8.24,1.11,9.09,4.48,2.82,9.77,6.13.6,8.84-3.15,12.84-3.85-.24,3.49-3.23,4.14-6,6h8.35c-1.56,2.19-2.74,3.91-4,5.58-.9,1.22-2.7,2.46,0,3.55,1.4.58,1.21,4.16,4,2,5.32-4,4.95.81,3.71,3-2.19,3.88,1.38,6.15,2.13,8.67,1.26,4.21,2.54-2.21,4.78-1.33.58,2.32-2.35,4.09-.92,7.18,4.55-4.28,7.74-9.93,14.27-12.48-.69,5.23-3.89,9.19-5.56,13.87,10.25-1.61,10.25-1.61,19.25-8.92,2,2.24-.07,4.07-1,5.4-2,2.79-1.21,4.7.72,7,2.09,2.46,4.24,2.05,7.06,1.5,1.81-.35,4.94-7.24,6.61.68.33,1.59,3.39-2.9,6.19-1.84,1,5.34,1.48,10.73-1.89,15.55,2.52,2.39,3.36-1.9,5.72-.86-1.24,2.87-2.53,5.42-3.44,8.1-.48,1.45-2.73,3.52.33,4.45.63.19,2-2.08,3-3.21,2.72-.06,2.53,1.29,1.49,3.06-2,3.41-4.95,6.71-.7,10.78,2.84,0,1.89-3.92,4.58-4.84,1.74,1.82-2,4.2.77,6.39l16.51-17.37c1.78,2.66-1.21,4.22-.1,6.5,2.27,1.65,3.41-2.47,5.74-1.86,2.06,3.38-3.5,4.49-2.12,8,3,0,3.81-3,5.7-4.45v24c-3.53.92-5.46-1.7-7.4-3.71-3.4-3.52-6.33-2.77-9.72,0a34.07,34.07,0,0,0-7.53,9.22c-8,13.23-14.92,27.07-24,39.65-2.32,3.22-2.62,6.84-2.31,10.68.85,10.51-3,19.28-10.24,26.71a36.82,36.82,0,0,1-4,3.94c-19.25,14.41-26.13,34.94-28.38,57.64-3.53,35.52-13,69.71-25.74,102.72-13.91,36-27.06,72.3-41.73,108-5.69,13.86-6.71,28.27-8.73,43a98.64,98.64,0,0,1,7-22.2c16.39-36.45,30.73-73.75,45.9-110.7,8.23-20.07,15.17-40.66,17.93-62.76,2.69-21.57,9.11-42.68,17.57-62.94a27.62,27.62,0,0,1,5.5-8.75c1.39-1.45,3-3.65,5.31-2,1.8,1.28.93,3.51.17,5.15-6.52,14.17-8.94,29.47-12.38,44.49-1.78,7.8-3.15,15.78-3,23.72.41,27.68-7.38,53.41-16.16,79.33C1001,622.12,983.23,662.3,966.8,703c-5.93,14.67-7.5,30.47-10.64,43,9.1-17.15,15.62-38.81,30.83-55.77,4.24-4.73,5.59-10.36,6.61-16.66,4.48-27.61,8.81-55.3,27.44-78.14a55.5,55.5,0,0,0,11.44-26.12c1.76-10.56,7.85-19.84,8.91-30.61,1.93-19.6,3.53-39.23,3-58.94-.35-13.34,3.68-25.13,11-36a191,191,0,0,1,16.1-20.88c6.73-7.5,11.14-16.12,14.78-25.38,4-10.3,3.61-19.71-3.84-28.39-1.72-2-3.23-4.22-4.92-6.28s-5.19-4.24-3.3-7.32c1.72-2.8,4.81-.59,7.3,0,5.87,1.46,9-2.86,11.85-6.45,7.67-9.65,12.06-21.22,17.75-32,1.39-2.64,1.56-6.44,5.84-6.53v72c-4.24,4.69-6.1,10.13-6.64,16.52a33.89,33.89,0,0,1-7.76,19c-16.89,20.38-27.14,44.41-37.3,68.44-5.09,12-4.55,25.08-5.19,37.75-.49,10-2.8,19.36-4.76,29-4.57,22.54-14.78,43.18-20.79,65.19-1,3.79-2.51,7.49-2.53,10.77,1.32-8.24,4.56-16.71,7-25.39.47-1.65,1.47-3.88,3.73-3.5s2.54,2.82,2.23,4.51c-4.79,25.59-7.1,51.86-18,75.88-5.08,11.2-13.67,20-23.51,27.79-12.65,10-22.37,22.68-30.38,36.71C954,778.68,936.31,813,918.08,847c-4.3,8-6.14,17-10.65,24.87H877c.66-5.33,3.65-9.47,7.47-12.79a42.87,42.87,0,0,0,13.76-21.83c3.29-12.24,11.66-21.92,17.78-32.72,13.58-23.94,10.52-49.28-7.95-69.52-13.2-14.48-26.47-29-38.2-44.68-9-12-15.49-25.86-23.4-38.71-3.85-6.26-8.39-12.09-12.62-18.11.34-4.16,4.5-3.71,6.82-5.14,6.27-3.88,14-5.34,17.52-13.26,1.55-3.49,5-3.57,7.28.34a36.19,36.19,0,0,1,4.94,14.85c.41,4.39-4.22,7.41-3.12,13.2,12.17-25,30.92-45.6,35.65-73.16,2.25-10,5.47-19.8,7-30,2.08-10,7.09-18.87,10.32-28.44,5.35-15.9,10.77-31.74,13-48.47,1.72-13,5.65-25.43,9.94-37.75,8.44-24.2,14-48.87,15.11-74.65.65-14.88,2.34-29.64-.32-44.48-1.52-8.44-3.61-16.56-8.35-23.91-4-6.12-4.67-12.24,1.24-18a20,20,0,0,0,5.31-10.58A121.88,121.88,0,0,1,963.48,231c-1.49,3.55-2.73,7.2-4.92,10.37-1.09,1.59-3,4.9-4.42,2.91-1.61-2.29-9-2-4.47-7.71,1.49-4.11,3.44-8,5.38-12.62-2.12,4.28-3.67,8.17-5.35,12-2.17,3.75-2,8.32-4.2,12-.91,1.51-1.65,3.79-4,3.19s-2.6-3-2.1-4.64c2-6.62-.65-13.18,0-18.44-.33,4,1,9.48-1.17,14.5-3.86,9.15-2.5,17.57,2.37,25.9,6.4,10.95,7.65,22.92,7.57,35.43-.17,25,.17,50.05-4.77,74.78-2.51,12.55-7.94,24.3-9.78,37a8.46,8.46,0,0,1-3.28,5.36,16.47,16.47,0,0,1-4.86,2.58c-8.1,2.54-11.82-.09-12.25-8.7-.08-1.58-.06-3.16-.08-4.73.71-14.41,5.36-28.17,7.19-42.41,2.47-19.23,5.72-38.29,5.85-57.86.13-18.42-4.78-35.31-11.87-51.68-4-9.16-4.12-17.4.2-26,1.71-3.39,2.36-7,3.24-10.57,4.58-4.2,11.31-6.09,13.64-12.78-2.48,6.41-8.74,8.57-13.55,12.38-1.48,7.55-4.43,14.25-11.48,18.17-3.15,1.75-2.85,3.45-1.59,6.42,11,25.86,16,52.41,10.58,80.61-2.5,13-4.31,26.19-4.14,39.55.13,11.35-3.1,22.7,0,34.07-.18,3.62.48,7.33-1.2,10.78-6.65,4.73-8,4.53-11.37-2-1.22-2.37-2.82-4.48-4.11-6.79-4.18-12.89-8.82-25.67-11-39.11a58.48,58.48,0,0,1,.77-23.78c1.23-4.91,2.14-9.92,3.73-14.7,7.91-23.91,4.94-47.8.21-71.72a3.89,3.89,0,0,0-2-3.14c-2.67,5.6-3.54,11.64-1,16.8,4.1,8.26,3.71,16.38,2.18,24.88-1.21,6.72-.44,13.86-4.32,20-4,1.24-7.12,9.91-12.45,1.68-.73-9.81-1.09-19.63.49-29.4a26,26,0,0,0-.18-9.51c-.6-2.89-1.49-5.09-5.25-4.16-2.27.57-5.32,1.21-6.15-1.71-.76-2.71,2.07-3.95,4.12-5.17.87-.51,2-.59,2.66-1.34a49.9,49.9,0,0,1-10.61,2.29c-2.1.26-4.88.44-5.57-1.85-.81-2.72,2.2-3.12,4-4a10,10,0,0,1,2.72-.79c-2,.92-5.09-.08-8.19-.51-12-1.67-12.74-3.08-12-15.22.91-14.75,8.89-23.29,22.25-27.81a16.4,16.4,0,0,1,3.79-1.22c25-1.92,39.36-20.19,54.66-36.41,7.63-8.1,15.64-15.91,22.74-24.57,3.6-4.39,7-8.68,7.43-14.45.47-6.95,4.5-11.68,9.09-16.2,1.61-1.2,2.94-3.57,5.34-2.34,2.79,1.42.93,3.4.32,5.37C961.21,127.74,964.5,131,963.51,134.75Z"/><path class="cls-2" d="M907.43,871.9c1.12-13.19,8.4-23.88,14.09-35.26,17.72-35.39,36.44-70.23,57.22-103.92a103.36,103.36,0,0,1,26.45-28.43,65.41,65.41,0,0,0,21.62-28.07c9.6-24.1,11.8-50,15.45-75.6q-5.67,17.91-11.35,35.82c.27-17,5.58-32.56,11.47-47.93,7.33-19.13,14.72-38.81,15-59,.5-42.4,17.91-77.43,42.11-110.26,4.85-6.59,9.12-13.44,9.08-21.68,0-7,1.65-12.24,8.45-15V489.65c-1.09.33-2.56-.15-2.33,2.07,4.17,40.37-7.66,77.48-27.25,111.45-14.94,25.91-22.93,53.07-27.28,82a118.38,118.38,0,0,1-13.47,39c-6.18,11.45-11.28,23.47-17.54,35-8.2,15-19.69,27.81-28.14,42.66-11.72,20.61-22.64,41.63-32.48,63.2-1.22,2.67-2.21,5.48-5.08,6.93H933c-.94-2.48.71-4.08,2.11-5.59,13.27-14.28,22.73-31.33,34.13-47,5-6.87,5.94-15.3,7.64-23.32,4.11-19.42,9.93-38,23.32-53.38,5.46-6.27,9.31-13.54,12.71-21.07a41.12,41.12,0,0,0,4.88-9.12,50.38,50.38,0,0,1-3.8,7c-8,13.56-19.86,24.12-29.09,36.81-9.36,12.89-15.87,27.11-21.86,41.45-7.65,18.3-19,33.69-32.31,47.88-7.82,8.32-13.61,18.26-21.72,26.31Z"/><path class="cls-2" d="M1117,310.52q-7.26,14.14-14.53,28.26c-1.34,2.59-2.48,5.4-4.34,7.59-6.29,7.41-11.31,18.71-24.74,8.07,4.32,6.41,9.13,10.7,12.8,16.18,4.44,6.63,5.63,13,4.17,20.22-2.58,12.84-8.9,23.77-17.32,33.7-10.84,12.77-22.19,25.26-25.36,42.68a95.91,95.91,0,0,0-1.39,21.48c.61,14.17-2,28.18-1.67,42.27.3,13.84-7.91,25.33-9.73,38.49a55.69,55.69,0,0,1-12.11,27.37c-18.74,23.13-23.08,51-27.22,78.9-.84,5.71-1.75,10.75-6,15.07C974.54,706,969,726.6,959,744.66c-1.52,2.75-2.59,5.75-5.2,8.52.27-3.1.36-6.24.85-9.3a267.49,267.49,0,0,1,24.44-76.42c12.78-25.84,20.89-53.45,31-80.29,8.2-21.71,15.57-43.54,18.41-66.67a107.69,107.69,0,0,0,.92-15.12c-.35-17.78,3.48-34.83,8.23-51.79,2.33-8.34,3.48-17,8.39-24.55-7.73,4.26-9.66,12.2-11.93,19.39-5.05,16-11.28,32-13.21,48.42-4.28,36.38-19.58,68.67-32.8,102-13.71,34.57-30,68.13-41.62,103.65-1.14-12.75-.71-25.71,3.51-37.61,11.37-32,22.85-64.09,36.33-95.25,10.84-25,17.38-51.16,25.53-76.94,7.23-22.87,8-46.6,13.15-69.68a60,60,0,0,1,18.82-32.46c5.51-5,11.28-9.83,15.33-16.18,3.67-5.76,6-12.21,4.46-19-1.21-5.39.69-9.5,3.52-13.32,8.76-11.8,15.36-24.87,22.68-37.52a61.12,61.12,0,0,1,8.08-10.38c6.34-7,9.84-4.93,14,1.49,1.08,1.65,2.64,3.4,5,3.67Z"/><path class="cls-2" d="M1080.19,871.9h-16c-2.38-5.91,1.5-10.29,4.12-14.6,8.58-14.12,17-28.15,21.15-44.49,5.74-22.77,9.82-45.74,11.08-69.2.5-9.29,3.15-18.35,3.21-26.73-4.81,21.42-6,44.53-14.51,66.18-4.58,11.75-9.77,23.15-17.52,33-12.34,15.74-24,31.91-33.69,49.4-1.44,2.59-3.12,5-5.83,6.4h-20.8c.6-7.21,5.37-12.6,8.75-18.38a158.35,158.35,0,0,0,14.38-31.1c6.84-21.37,17.36-41.17,25.62-61.92,7.55-19,11.69-38.7,14.52-58.74,4.14-29.35,9.33-58.31,23.41-84.94,7-13.3,9.14-28.32,13.81-42.45,1-3,.45-7.21,5.09-8V799.93c-7.81,24.22-21.38,45.67-32.79,68.17C1083.31,869.85,1081.72,870.84,1080.19,871.9Z"/><path class="cls-1" d="M1117,566.42c-2.24,7.08-4.9,14.06-6.62,21.26-3.67,15.4-10.61,29.42-16.9,43.8-9.12,20.87-13.06,43.25-15.91,65.67-3.92,30.89-11.68,60.54-25.89,88.3-8.29,16.17-12.71,33.83-20.12,50.33a233.28,233.28,0,0,1-20.14,36.12h-48c4.62-13,11-25.32,17.34-37.46,8.74-16.61,16.89-33.68,28-48.85a297.56,297.56,0,0,0,23.87-37.37c13.73-26,26.08-52.29,28.79-82.16,2.25-24.8,14.29-45.85,26.16-67.09,15.11-27.05,22.45-56.73,26.68-87.24,1.3-9.34-2-18.33-2.47-27.64,4.14.18,2.26,4.87,5.15,5.56Z"/><path class="cls-3" d="M909,871.9c3.43-9.46,9.86-17.12,16.92-23.67,20.65-19.16,32.5-43.65,43.5-68.73,6.8-15.5,16.36-29.12,27.5-41.62,5.63-6.33,11.19-12.62,15.73-19.78,3.15-.09,2.78,1.81,2.2,3.85-2.86,9-8.32,16.44-14.29,23.44-12.35,14.48-17.53,31.92-21.49,49.93-2.33,10.62-4.68,20.93-11.55,30.1C956,840.86,946.48,857.84,933,871.9Z"/><path class="cls-4" d="M1032.2,871.9c9.83-17.63,20.06-34.92,33-50.57,19.84-23.91,28.22-52.55,32.45-82.77,1.37-9.77,2.42-19.74,6.68-28.91,2.46,12.48-.94,24.57-1.78,36.78-1.9,27.9-6.63,55.32-15.86,81.84-2.73,7.86-7.43,14.65-11.72,21.65s-9.07,13.74-10.83,22Z"/><path class="cls-5" d="M1080.19,871.9l36.79-72c0,22.65-.1,45.31.1,68,0,3.44-.65,4.19-4.1,4.1C1102.05,871.72,1091.12,871.9,1080.19,871.9Z"/><path class="cls-1" d="M782.89,653.36c-17.45,13.32-34.8,26.75-52.37,39.9-11.41,8.54-21,17.64-24.24,32.78a69.24,69.24,0,0,1-25.46,41,40.43,40.43,0,0,1-17.94,8.1c-22.08,4-43-.56-61.82-12.25-7.28-4.51-12-13.42-19.47-17.35C557.19,732.73,551.91,710,547.35,686c-1.78-9.31.58-16.73,4.54-24.88,10.3-21.25,19.65-42.95,29.41-64.46.75-1.66,1.74-3.21,2.62-4.81,8.88,0,13.47-7.43,19.92-11.62a10.68,10.68,0,0,1,3.14-.12c2.48.1,4.27-1.74,6.49-2.37,2.72-1,6.06.51,8.39-2.08,1.1-1.75,1.8-3.77,3.45-5.14,2.26-2.63,6.23-.6,8.5-3.17,7.94-29.7,20.78-57.52,31.91-86,6.78-17.33,12.25-35.16,20.62-51.87,6.45-12.89,14.44-24.83,22.42-36.78S719.74,368,717,354c-3.34-17-3.07-34.42-6.27-51.44a7.51,7.51,0,0,1,.66-4.67c3.35-4.08,5.5-1.18,7.45,1.44,3.09,4.13,4.43,9.07,5.79,13.93,1.65,5.9,3.37,11.77,5,17.65,4.27,13.17,7.18,26.72,12.12,39.72,4.13,10.85-.68,20.12-7.45,28.72-20.27,25.75-40.73,51.4-53.18,82.21-5.72,13-12.48,25.48-17.93,38.6-5.57,14.74-10,29.89-16.27,44.37,6.2-14.07,10.54-28.83,16-43.19,5.22-13.08,12-25.45,17.71-38.3,1.71-4.62,4.94-7.9,8.56-11.23,8.66-7.94,14.16-18.56,22.15-27.19,8.49-9.16,16.71-18.61,24.75-28.2,1.64-1.95,3.61-4.76,6.49-3,2.37,1.45,1.22,4.39.52,6.64-4,13-8,25.39-20.83,33.62-9.76,6.27-16.83,16.14-23.38,26-16.88,25.41-31.4,51.93-39.16,81.73,5.07-12.55,9.88-25.19,15.09-37.67a178.89,178.89,0,0,1,28.64-46.65c13.59-16.16,30.89-29.45,39.66-49.5a4.38,4.38,0,0,1,3.08-2.35c2.34.4,2.67,2.47,3.47,4.14.19.17.39.58.51.55,14.06-2.65,27.55,1.91,41.29,3.22,5.4.51,9.8-1.29,13-5.84,1.36-1.92,2.94-3.77,5.42-4.42C820,424.1,822,428,816.72,436.24c-2.69,4.24-5.73,8.29-7,13.28-7.21,7.29-15.65,8.72-22.62,3.34-9.26-7.16-20.06-8.24-29.38-3.14-13.08,7.15-26.28,15.15-33.66,29.44,9-7.63,19.68-12.21,30-17.54,10-5.19,20-4.93,30-.4,7.12,3.21,12.92,8.21,14.19,16.17,2,12.42,5.91,24.32,8.75,36.51.76,6-2.5,11.51-1.1,17.83,1,4.51-4.42,5.12-7.85,6-3.89,1-4.13-2.26-4.57-4.8a15.15,15.15,0,0,0-1.57-5.24c-5.51-19.84-21.49-28.84-41.22-27.8-10.73.57-20-4.84-30.4-6-6.65-.72-12.12.12-17.2,4-9.39,7.16-15.05,16.72-18.44,28.71,5-1,6.86-4.41,9-7.25,5.28-6.93,11.74-11,20.82-11.55,11-.68,21.73-1.23,31.69,4.86,4.41,2.7,9.76,2.43,14.68,3.5s9.19,2.94,12.16,7c13.39,18.38,14.37,38.77,9.56,60.08-2.2,3.69-3.72,8.49-9.72,6-3.46-5.37-1.85-11.39-1.86-17.11,0-7.64-1.14-14.34-8.76-18.16a6.07,6.07,0,0,1-2.39-2.1c-7.56-12.13-20-13-32.29-13.6a129,129,0,0,0-29.42,1.38c-10.59,1.91-19,6-23.61,16.53-2.64,6-5.8,11.82-8,18.18,3.34-1.6,4.51-4.93,5.64-8,2.78-7.65,8.07-11.06,16.2-11.85,10.88-1.06,21.69-2.47,32.54-.25,20,4.09,33.44,16.71,42.73,34,3.28,6.1,2.38,13.5,3.36,20.33-3.09,7.91-5.57,8.87-13.68,5.36-2.28-2.14-3-5-3.15-7.92-.59-8.77-6.1-13.13-13.85-15.36-16-4.59-32.36-5.79-48.82-6-12-.14-17.89,7.49-15.37,19.33.94,4.4,2.52,8.67,2.29,13.26,1.85,4.58,7.33,9.45-.92,13.34-6.1,5.53-1.46,12.43-2.37,18.61.47,9.37,6.61,16,11.77,22.85,2.1,2.76,6.62,5.93,11.18,2.13,2.42-2,4.73-.43,6.6.69,9.66,5.72,19.17,2.49,28.4-.7,3.23-1.11,6.47-1.43,9.42-2.31,5.2-1.54,8.29-6.78,10.69-11.84s1.24-10.41,1.6-15.66a7.63,7.63,0,0,1,1-2.25c8.39-7.63,12.44-7,15.26,2.39-.11,2.47,1,3.85,3.58,3.92,3.06.41,5.35,4.36,9.34,1.27C781.41,648.63,783.82,650.49,782.89,653.36Z"/><path class="cls-2" d="M680.07,481.2c5.65-16.16,14.08-30.79,23.67-44.91,10.61-15.61,23.85-29.2,33.9-45.23,4.37-7,5.19-13.81,1.86-21.2-5.49-12.21-7.85-25.36-11.43-38.14-.67-2-1.21-4,.71-5.64,5.62-.64,7.05,4.08,9,7.55,5.38,9.51,9.84,19.5,14.82,29.22,1.56,3.06,2.77,6.37,6.32,9.11.64-3,0-5.87.86-8.43.8-2.32,1.53-4.72,4.12-5.51,2.88-.87,4.34,1.28,5.76,3.26s3.32,3.47,3.54,4c-10.89-14.8-24.29-30.06-33.19-48.44q-6.78-14-14.87-27.37a25.36,25.36,0,0,1-3.72-14.5c.35-7.93-3.84-14.85-5-22.43-.32-2.1-1.34-.83-2-.9-9.09-.88-9.48-1.63-5.18-10a3.67,3.67,0,0,0,.8-2.19c-2.55.57-3.49,3-5.21,4.52-2.16,1.89-4.51,3-7.28,1.77-3.18-1.42-2.67-4.31-2.17-6.94C697.81,226,698.18,213,699.1,200c.5-7.11-2.25-12.15-8.11-16.17-7.7-5.29-15.38-10.41-24-14.11-14.8-6.33-25.17-16.81-28.24-33.21-1.77-9.48-5.55-18.28-8.87-27.25a3,3,0,0,1,2-2.57c5.79.59,9,5.25,13.09,8.48,16.38,13.13,33.76,24.9,50.54,37.48,2.15,1.44,6.41,4.07,5.35,4.89-3.84,3-2,10.79-8.73,10.47a114.26,114.26,0,0,1,24.46,36.16c2.33,5.36,1.24,11.51-1.42,17.08-1.21,2.55-3.56,4.69-3.28,8,3.22.87,5.67-1.33,8.49-1.8,6.95-1.16,10.64.77,13.44,7.4.28.68.11,1.68.91,2,13.74,5.73,17.84,18.28,21.93,30.86a29.3,29.3,0,0,0,5,9.07c5,6.37,10.73,12.22,15.14,21.37-5.46-20.24-14.09-36.39-27.85-49.6-1.41-1.35-4-2.67-2.62-5.13,1.17-2,3.68-1.73,5.82-1.55,1.79.15,3.45.88,5.52,1.24-3.14-2.47-6.93-3.33-9.65-5.87-1.76-1.64-3.8-3.48-2.25-6.13,1.35-2.32,3.74-1.29,5.8-.94A40.81,40.81,0,0,1,781.23,251c14.78,26.1,30.1,52,39.14,81,3.65,11.7,1.78,22.34-2.88,33.14,6.8-6.58,9.25-14.72,8.69-23.9-.82-13.51-5.23-26-11-38.1-1.24-2.58-3.28-5.9-.49-8,3.09-2.37,6.22.38,8.4,2.5,10.68,10.34,13.12,24,14.3,37.92.62,7.36-.15,14.79-.27,22.48,7.18-5.44,9.26-11.46,7.53-19.2-1.37-6.18-4.75-11.93-4-18.56a3.07,3.07,0,0,1,2.47-2.16c1.25-.33,4.85,3.58,3.31-1.75-2.16-7.51-6.2-14.15-10.53-20.53-3.58-5.29-5.16-10.39-4.35-17.07,2-16.55-4.29-26.06-20.33-31-12.52-3.84-20.65-12.91-28.52-22.21-4.86-5.75-10.32-9.93-17.42-12-10.1-2.89-17.43-8.85-21.53-18.62-1.45-3.47-4-6.28-5.93-9.45-1.18-1.92-1.85-4.17.07-5.83,1.62-1.39,3.6-.35,5.19.62,3.68,2.25,6.44,5.55,9.45,8.56a102.32,102.32,0,0,0,19.17,15.54c1.56.94,3.24,1.84,5.65,1.3.76-3.85-2.13-5.56-4.43-7.47-2.9-2.41-5.56-5-7.08-8.5-.94-2.18-2.2-4.57.11-6.6s4.53-.55,6.68.43c2.76,1.25,4.6,3.55,6.46,5.83a30.31,30.31,0,0,0,8.88,7.92c1.42.75,3.13,1.64,4.39.24,1.46-1.62,0-3.14-1.27-4-10.13-6.82-12.22-18.33-16.72-28.42-1-2.23-1.72-4.9.6-6.6s4.49.26,6.47,1.55c7.89,5.12,11.8,13.51,17.12,20.77,2.8,3.81,4.69,11.41,9.74,9.26,3.18-1.35-1.22-8.53-2.79-12.85-2.74-7.5-5.42-15-7.73-22.66-.91-3-2.11-7.13,1.44-8.54,3.27-1.31,6.19,2.05,7.39,4.85,4.68,11,10.41,21.56,13.87,33.05,1.37,4.56-1.55,7.53-4.4,10.44a40.89,40.89,0,0,0-7.77,10.21c1-2.87,5-6.67,8.88-10.53,10-7.87,22.6-13,29-24.63,8.76-16,23.54-23.15,39.27-29.42,11.54-4.6,21.29-12.16,31-19.59,14.69-11.26,31.32-19,47.3-28,2.22-1.24,5.3-1.47,6.27-4.51,1.46-2.18,3.91-2.15,6.52-2.84-3.53,2.3.33,5.47-1.54,7.81-7.91,5.15-8.32,14.81-13.07,21.88-1.41,2.09-2,4.72-3.69,6.75-4.47,4.76-8.56,10.15-8.9,16.65-.64,12.25-10.72,17.83-17.32,25.54A384.65,384.65,0,0,1,889,206.39c-3.38,2.88-6.73,4.79-11.31,4.94-8.08.26-15.72,3-23,6.2-12.18,5.44-18.88,20.42-16,33.69.57,2.61,1.81,3.42,4.4,3.3,6.84-.31,13.56,3.28,20.76,1.16L850.57,262c8.77.8,15.37-2,23.34-5.22-3.35,7.33-10.89,6.47-13.81,11.5,4.36,2.18,7.66-2.42,11.89-1.94,3.22,15.1-.71,30.15,0,45.17,2.64,18.8-1.85,37.54-.68,56.29,1.62,25.73,2.78,51.48,5.26,77.15,3.16,32.62,3.75,65.27-1.44,97.77-1.34,8.4-1.93,16.92-3.86,25.23-.37,1.55-.42,3.19-1.19,4.62-1.43,2.64-3.31,5.62-6.54,4.79-3.51-.91-2-4.51-1.64-6.84a526.53,526.53,0,0,0,4.61-58.69,58.3,58.3,0,0,0-1-13.51c-.6-2.88-.4-5.81-.49-8.72-6.94-35.6-8.23-71.61-8.35-107.7-.92,3.52-.73,7.33-.47,11,1.78,24.94-1.72,50.15,2.94,74.86,4.31,22.88,5.56,45.89,5.75,69.05.13,15.22-2.92,30.08-5.54,45a12.53,12.53,0,0,1-1,3c-1.91,4.23-4.62,9.68-9.27,8.35s-1.66-6.9-1.05-10.57c1.81-11,4.1-22,6-33,2.25-12.73.34-24.84-2.95-37-4.38-16.23-7.41-32.75-6.85-49.61.52-15.22-1.45-30.29-1.9-45.44-.48-16,2.51-31.81,2-47.78a15.82,15.82,0,0,1,3.37-9.63c2.09-3.9,3.29-8.19,4.67-11.88-1.71,2.64-1.76,6.5-3.77,9.56a19.26,19.26,0,0,1-2.27,4.22c-17.88,23.05-17.94,49.59-14.44,76.56,2.11,16.18,3.18,32.21,1.64,48.54-2.89,30.72-7.57,61.32-7.09,92.31.14,9.67-2.68,19-4.4,28.38a12.24,12.24,0,0,1-1.45,3.71c-1.14,2-3,3.55-5.17,3-2.66-.72-2.09-3.41-1.79-5.44,1-6.8,3.31-13.36,3.29-20.4A713.12,713.12,0,0,1,823,496.31c3.22-25.21,2.19-50.36-1.68-75.48-1.61-10.49-2.55-21.22,1.88-31.46,4.35-7.35,4.32-7.41-4.41-8.08-7.07-.08-13.27-3.56-20-5.08-14-3.16-29.46,3.4-36.49,16-3.53,6.32-10.86,10.62-10.23,19.15-1.63,5-3.38,9.89-6.33,14.27-6.06,12.74-14.07,23.71-23.94,34.15-17.94,19-36.19,38.06-44.77,64-4.14,12.53-10.68,24.26-14.58,37-.81,2.65-1.92,6.13-5.49,7.13-1.69-1.88-.61-3.64-.1-5.33,11.64-38.92,29.87-74.26,57.24-104.57,2-2.17,3.81-4.82,6.29-6.06,15.92-7.92,17.75-23.75,22-38.36-21.79,21.85-40.25,46.53-60.59,69.58C680.15,483.44,679.29,483,680.07,481.2Z"/><path class="cls-6" d="M825.65,387.78c-5.51,14.3-3.75,29.19-.92,43.28,5.44,27,1.86,53.65-1.05,80.27A618.31,618.31,0,0,0,820,573.44a151.66,151.66,0,0,1-5.44,40.07c4.68-1.94,4.35-2,5.74-7.32,5.06-19.31,3-39.2,5-58.76,1.92-18.79,3.17-37.66,5.45-56.41a178.87,178.87,0,0,0-2.67-59.49c-3.17-14.84,2.83-29.51,3.26-44.36.39-13.56,11.52-21.1,17.16-31.7,3-.09,2,1.65,1.49,3.2-5.84,13.93-4.43,28.91-4.45,43.22,0,34-1.08,68.11,5.78,101.72a113.5,113.5,0,0,0,3.27,12.29c7.25,22.55-.08,44.18-4,66-.65,3.62-1.59,7.19-2.6,11.68,6.48-3.49,8.54-8.35,9.78-14.33,7.7-37.07,5.09-73.83-.73-110.94-4.75-30.27-3.81-61-.4-91.51a6.85,6.85,0,0,1,1.83-3.61c-.28,12.19-.93,24.32.39,36.45,2.9,26.66,2.54,53.65,8.49,80-2.35,2.76-4,5.5.36,8,3.17,16.73-.22,33.36-1,50-.42,9.5-2,18.94-3.15,29.64a13.58,13.58,0,0,0,5.65-9.25c7.54-44.55,8.56-89.15,4.13-134.19-2.85-29-5.91-58.21-4.15-87.52.7-11.61,1.87-23.2,2.83-34.8.66,3.11,1.8,5.46,4.92,2,1.47-1.64,2.8-3,5.15-2.9,3.8,6.75,2.69,14.21,1.7,21.07-4.42,30.6-2.32,61-.09,91.64,3,41.42,4.57,83-2,123.4a175.34,175.34,0,0,0,20.5-50.51c1.21-5.33,1.63-10.38-.13-15.69-3.41-10.31-1.13-21.19-2.88-31.75-2.09-12.6-3-25.39-4.64-38.07-.42-3.16-1-6.41,1.72-9,1.4,1.86,3.82,3.62,4,5.6.69,7,4.77,5.12,8.78,4,.57.56,1.39,1.16,1.35,1.9-.73,14,4.92,27.45,3.58,41.54-.54,5.6,1.36,11.29-.41,15.19,3.41-15.46-1.68-32.28-2-49.31.8-3.86-1.82-8.87,3.74-11.12,0,.26,0,.52.06.79.33,14.62,1,15,14.79,9.13,2.72,3.54,2,7.58,1.34,11.46-1.35,8.07-1.13,16.41-3.93,24.23-2.17,1-2.58,2.76-1,4.52a13.58,13.58,0,0,1,.37,6.29c-4.34,23.86-7.36,48-15.5,71-2.23,6.77-1.59,14.43-6.3,20.45-4.08.28-5.82-2.89-8-5.44-.75-8.6,4.86-15.55,6.15-23.62,1.82-8.64,4.72-17,6.6-25.74-1.18.34-.44,1.48-.56,2.07-1.36,6.4-3.58,12.57-5.05,18.94-2.46,11.26-6.31,21.95-12.62,31.67-2.46,1-4.29,3-6.28,4.67-1.23,1,1.41.56,1.54,1.55,0,11.25-7.67,18.93-13.39,27.32A91.81,91.81,0,0,1,860,604.5c3.71-1.53,5.18-5.72,9.23-4.71,2.5,2.21.53,6.46,4.18,8.66,3.45-4.38,6.35-10.53,13.72-6.57a6.1,6.1,0,0,1-.84,6c-5.25,8-7.91,17.89-17.07,22.94-2-4.25-2.13-9.13-4.86-13.16-.81-1.19-.57-3.84-2.33-3.53a6,6,0,0,0-3.78,3.67c-1.14,3.79.79,10.71-7.19,5.69-1.85,4.54-8.71,4.83-9.46,6.5-2,4.56-6.15.82-7.77,3.5-2.52-2.38-5.33-4.5-6.8-7.8,10.12-1.6,10.12-1.6,11.23-12.63.16-1.58.26-3.16,1.33-4.46,1.93-2.86,5.5-2.81,8.06-4.54a4.32,4.32,0,0,0,2.07-4.72,2.23,2.23,0,0,0-2.24-1.83c-2,0-2.52,1.68-3,3.12-1,2.73-2,5.43-4.29,7.37a60,60,0,0,1-4.84,4c-4.22,3.53-4.23,3.51-10.19,1-1.59,3.85,3,7.38.59,11.2-3.34-1.26-5.16,2.17-8,2.6-5.4-6.08-5.51-6.16-11.11.81-3.07,3.82-10,5.21-8,12.33-4.56,5.28-10.43,9-15.78,13.36l-1.77-2.48c-5,8-7.84-1.09-11.77-1.47-2.67-6.29,0-12.43.63-18.6.31-3.39.72-6.79,1.22-10.72-2.36,6.67-1.9,13.18-2.75,19.51-.35,2.61.81,6.14-3.13,7.32-1.16-10.25-2.92-10.75-12.93-3.72-4-5.68,2.72-8.2,3.53-12.24.63-1.12-1-.83,0-.55-5.23,11.09-18.5,18.59-14.35,32.89,3.65-3.08,6-7.84,7-13.47.37-2.13.22-5,3.59-5.3,4.24,12.56-4.86,20.85-9.79,30.47-.22.42-.9,1.07-1.05,1-10.54-5.29-18.75,5.65-28.83,4.1-3.63-.56-7.11-.42-10.59-2.46-1.72-1-4.22-4.47-8.11.14-2.7,3.2-10.16-.88-12.48-4.14-5.17-7.28-11.64-14.32-12.2-24.08,2.85-.6,3.74,1.78,4.6,3.48,3.08,6.12,9.86,8.26,14,13.3,1.23,1.49,4.59.85,6.78-.3a8,8,0,0,1,8.3,0c7,4.29,10.82.1,14.28-5.2,1.14-1.75,3-3,3.69-5.28-3.39-1.44-8,2.74-10.56-2.09.39-1.06.15-1.56-.41-1a5,5,0,0,1-1.84,1.47c-11.36-.3-22.21-1.59-27.44-14-1.07-2.53-3.15-4.1-5.47-5.47-2-1.21-4.16-2.5-3.21-5.52,8.63-2.89,3.94-6.58.61-10.2,2-11.28,3.62-13.39,15.28-14.19,13.74-.95,27.59-1.73,40.95,3.3,8,3,16.4,5.11,19.49,14.51,4.8-2.31,2.52-7.56,5.87-9.69,5.44,2.46,9.93,2.73,11-4.79,4.84-2.89,8.51-6.13,5.46-12.62-1.2-2.55-.61-5.21,2.44-6.57,5.26,1.11,5.93-3.58,8.07-6.41,2.46,2.35,2.13,5.18,1.68,7.59,12.5-12.58,11-28.8,9.76-45-.5-6.24-2.42-12.54,1.12-18.52,3.62,2.46.71,6.56,2.61,9.89,4-2.19,11.37-1,7-10.2-1.54-3.27,2.59-8.28,2-12.88,4.45,1.53,3.52,5.47,3.63,8.69.53,15.49-2.31,30.73-3.71,46.08-.46,5-.91,10-1.09,15.11-.35,9.82-3,18.85-9.56,26.49s-9.32,16.95-10.61,26.94c8.64-10.72,17.82-21,25.31-32.5,2.46-3.79,3-8.53,2.6-13.13-2.26-26.12-.54-52,3.77-77.85,4.43-26.46,5.47-53.2,4.9-80-.23-1.06-1.54.51-.6,0,.23-.12.39.08.45.6.46,4.22,1,8.42,0,12.65-2.66,10.83-4.34,21.42-1.25,32.79,1.74,6.42-1.46,13.6-2.89,20.35-.51,2.36-1.7,4.93-4.51,4.91-3.12,0-3.66-2.94-3.66-5.26,0-7.06-2.08-13.56-4.25-20.16-1.77-5.42-.81-11,1.08-16.45,1.45-4.16,4-8,3.54-12.76-1.62-6.15,3.51-9.83,5.9-14.16,4.94-8.95,5.51-8.7-4.39-11.6-1.74-5.6.85-10.19,3.47-14.76a6.49,6.49,0,0,1,2.2-.33c.77,0,1.47.86,2.28.19a5.73,5.73,0,0,0-2.15-.58,2.83,2.83,0,0,1-1.87-1.12C812.2,397.52,817.14,389.35,825.65,387.78Z"/><path class="cls-1" d="M969.94,88c1.24.58,1.51,1.23.19,2.08-5.59,3.59-10.75,8.29-16.82,10.61C936.59,107,922.83,118,908.79,128.4c-10.67,7.87-22.41,13.26-34.21,18.65-9.35,4.27-17.56,9-23,18.47a60.42,60.42,0,0,1-25.71,24.3c-2.77,1.38-5,3.9-7.43,5.89-1.9.45-3.94,1.17-3.89-2.06,4.9-4.23,5-8.72,2.33-14.62-3.6-8-7.95-15.67-10-24.33-.9-3.91-4.36-5.7-8-8.4-.87,7.16,2.32,12.54,4.13,18.13,2.53,7.84,5.56,15.53,8.46,23.25,1.06,2.82,1,5.24-1.86,6.88s-3.5-1-5-2.43c-6.83-6.52-10.2-15.5-16.27-22.58-3.83-4.45-7.65-8.64-14.09-10.16,5.7,10.62,6,23.87,17.18,31.73,2.38,1.68,7.22,3.49,4,7.94s-6.74,1.25-9.7-.73c-4.22-2.84-7.36-6.88-10.73-10.66a12.57,12.57,0,0,0-8.84-4.21c-.34,5.55,3.08,8.81,6.5,12,1.94,1.8,4.46,3.08,6.05,5.13,1.48,1.9,3.9,4.16,1.7,7.07s-5,1.24-7.21.19c-8.55-4.07-15.26-10.54-21.58-17.43-3.87-4.21-8-8.06-13.79-9.92,8,11.41,10.81,27.25,27.66,30.81,13.11,2.78,19.63,14.24,27.85,22.89a40.52,40.52,0,0,0,21.6,12.17c9.59,2.15,19.57,14.19,18.38,24-1.46,12,1.12,22.12,8.31,31.93,4.62,6.3,9.51,13.54,6.55,22.76-3.57-1.12-3.66-4.23-5.18-6.24-3.57-3.31-4.79-8.08-7.5-11.85,2.09,4.38,5.51,8.29,5.86,13.51,1.23,4.35,1.89,9,3.81,13,4.58,9.59,1.62,17.52-4.42,25-1.31,1.63-1.6,5.34-5,3.34-2.25-1.33-2.32-3.56-1.77-6.29,3.53-17.47,1.45-34.22-7-50.1-2.74-5.17-7-8.23-12.21-10.84-1,3.37.92,5.5,2.07,7.75,6.34,12.47,11.12,25.58,11.29,39.57.11,9.29-.58,19.3-9.36,25.69-1.38,1-3.56,3.37-5.5.79-1.36-1.8.34-3.47,1.33-5,6.35-9.84,7-20,3.37-31.2-4.47-13.71-9-27.61-16.26-39.83-8.4-14.16-14.4-29.59-23.77-43.13-7.69-11.1-18.71-16.51-32.17-17.81,1.53,5.8,7,6.1,11,8.38,2.09,1.2,6.12,1.71,4.89,4.92-1.1,2.87-4.26.58-6.39,0-2.83-.76-5.54-2-9.35-.93,19.06,15,28.49,35.16,32.8,58.15-8.43-14.13-23.21-24-26.55-41.6-1.57-8.24-8.69-13.85-12.87-20.92-2.21-3.74-5.83,2.28-8.51.07-3.76-3.1,5-4.72,1.33-7.71-4.28-3.52-9.54-3-14.45-1.71-3,.78-5.79,2.54-9.18,1.92-.43-4.12,2.37-6.94,4-10.05,4.69-8.94,4.17-17.26-1.61-25.48-4.74-6.76-9.4-13.57-13.81-20.54-2.66-4.22-7-6-12-8.48,4.36-1.58,8.73,1.48,11-3.23,2.13-4.5-4.18-3.33-3.93-6.67,2.61-1.74,5.06,2.36,8.11.4l-5.68-4.05c-.15-3.54,1.31-4.76,4.68-3.24l9.13,7.69c0-6.48-5.16-8.54-7-12.51,8.9-.77,2.57-5.1,1.55-7.56-1.47-3.59-3.78-6.83-6.53-11.58,8.09,2.22,11.44,9,17.22,11.66,2.42-2.48.08-4.36.15-6.36a68.11,68.11,0,0,0-.69-8.64c3.72,3.33,7.52-1.76,12,.66,8.26,4.45,8.63,3.75,8.21-5.54,2.56,0,1.78,2.86,3.26,3.71,5.37-18.68,5.37-18.68,1.12-25.6,6.38.82,21.86,12.55,24.51,18.59,2.74,0,1.63-3,3.56-4.28,1.94,1.1.17,4.64,3.34,5.46.8-2.53,1.63-5.12,2.46-7.75,2.48.88.67,3.27,2.43,4.74,5.64-2.87,4.31-9.15,7-15.72-1,8.74.21,14.73,8.52,15.23,5.51.34,11.9,3.12,16-5.4,1.1,16.67,18.27,9.65,23.73,20.17l5.11-12.79c3.09.71,2.09,3,2.47,4.59l3.36,9.56c2.8-1.74,5.48-3.7,8.42-5.15,2.28-1.13,3.07-3.46,4.88-5,3.26,4.22-2.25,8.11-.48,12.49,4.12-2.43,3.32-7.24,5.35-9.73,2.5,4.16,5.27,8.36,7.52,12.83.61,1.21.49,2.92,2.09,1.6,9.22-7.61,3.13,4.58,7.82,4.62,11.6-5.34,24.9-10.74,35.91-20.06C929.13,105.91,949.56,97,969.94,88Z"/><path class="cls-1" d="M630.44,109.17a53.67,53.67,0,0,1,9.27,23.42c2.64,17.45,12.74,28.76,28.5,35.59A90.67,90.67,0,0,1,687.67,179c14.29,10.94,16.44,17.6,12.4,35.37-2,8.75-.67,18.06-3.33,26.84-.47,1.55-.37,3.27,1.88,3.6s4.28-.17,5.21-2.55c1.79-4.57,5.42-6.17,10-6.52-2.18,4.49-7,10.07-5.78,12.88,2.42,5.36,8.89-2.1,14.35,1.48-6.27,1.43-5.18,3.92-2.53,7.95,2.76,4.2,3.31,9.67,3.23,14.67a31.33,31.33,0,0,0,4.47,16.58c9.76,17.08,17.71,35.19,29,51.37,6.36,9.12,14.73,16.76,20.25,26.55.8,1.43,3.32,2.95.88,4.58-2,1.31-3.38-.69-4.43-2.21s-1.58-3.56-2.9-4.73c-2.25-2-3.34-7.37-6.31-5.86-3.49,1.79-3,6.89-2.76,10.91.1,2.18,4.74,4.64.44,6.3-3.14,1.21-5.24-2.13-6.58-4.71-6.12-11.79-12-23.73-18.17-35.48-1.83-3.48-4.55-6.49-6.86-9.71-5-3.52-4.63-9.3-5.18-14.22-.85-7.63-3-14.22-9-19.26-2.37-5.64.21-11.55-1-17.26a25.69,25.69,0,0,0-2.45-12.42c-1.6-3.33-4.7-7-7.72-6-9.28,3.11-15.9-4.2-24.18-4.87,0,2.34,3.87,4.73.76,6.73-2.37,1.51-4.35-1.19-6.05-2.74a95.14,95.14,0,0,0-8-6.59c-1.37-1.07-2.63-2.31-4.4-2.73-6.19-2.23-.84,3.92-3.23,4.44a3,3,0,0,1-2.1.44c-3.62-1.57-5.85-5.44-10-6.1-3.21-.52-6.59-.8-8.52,2.41-1.69,2.82.51,5,2.25,7,6.68,7.41,12.43,15.69,20.46,21.82,1,1.92,1.77,4.41,4.14,1.1,2.79,1,4.34,3.57,6.7,5.1,1.74,1.12,2.15,0,2.19-1.49a3,3,0,0,1,1-1.87c.74-.37,1.84-.76,2.24-.29,6.77,7.76,16,6.29,24.74,6.75a16.39,16.39,0,0,1,8.27,2.33c2.54,6.84-2.79,7.41-6.91,7.84-7.62.8-15.33,0-23,.44a13.31,13.31,0,0,1-2.44.27,7,7,0,0,1-2.25-.56c-3.66-2.48-6.41-.54-9.06,1.89-1.71,1.56-2.66,4-5.27,4.53-1.22-.35-2.14-.85-1.22-2.32-.53-4.54,6.58-7.89,2-13.11-5.86-6.64-11.69-13-21.79-12.46-6.91.37-13.92-.53-20.78.21-12.91,1.39-23.31-4.25-33-11.24-6.16-4.42-12.48-6.8-19.94-6.55-2.39.08-4.81-.2-7.19,0-14.28,1.42-25.57-3.85-35.53-14-7.09-7.24-15.69-10.92-26.43-6.21-8.28,3.63-16.33-.18-23.47-4.14-10.19-5.64-20-12.1-29.66-18.58-3.12-2.09-5.74-2.53-9.52-2.15-17.36,1.77-34.15,1.4-45.95-14.91-3.55-4.9-10.11-5-15.3-4.47-14.33,1.57-24.85-5.59-35-13.76-3.08-2.48-6-3.72-9.38-2.55-11.57,4-21-1.85-29.71-7.44a41.45,41.45,0,0,0-23.87-7c-8.14.14-16-.5-22.75-5.4-12.13-8.82-25.89-12.59-40.51-14.43-4.62-.58-9-2.83-13.56-4.08-3.59-1-4.93-3.38-4-6.57,1.05-3.44,4.15-2.91,6.68-2,6.4,2.39,12.75.82,18.82-.65,13.59-3.28,25.47-.79,35.15,9.33,5.47,5.71,10.72,7.29,18.4,4.19,10.88-4.39,21.2-1.1,29.59,6.34,5.57,4.95,10.85,7.62,18.51,6.52,8.09-1.15,16.36.27,24.6-1.24,5.25-1,10.29,1.32,14.23,5.64,5.91,6.49,12.67,9.28,22.05,6.88,8.39-2.13,16.31.19,23.37,6.63,8.11,7.39,18.33,9.48,29.52,8.12,11.78-1.43,24.41-3.63,33.69,6.53,7.87,8.6,16.48,11.07,27.79,8.61,6.35-1.39,13.3-.55,19.92,0,5.81.51,12.25,1.33,15.74,6.59,7.44,11.2,19.2,12.61,30.64,13.82,8.08.85,16.41,1,24.64-.8,9.46-2.06,16,3.78,21.06,10.34,6,7.88,13.6,9.31,22.5,8.82,10.9-.6,21.93-.53,32.22,3.28a66.94,66.94,0,0,0,15.56,3.58c-1.42-5.58-5.25-8.13-10-9.91-8.94-3.36-18-6.52-25.32-13,1-5,5.28-2.06,7.82-3.33,4.59,0,7.11,4.18,10.65,4.95-2.69-2-7.37-2.89-8-7.86a2.93,2.93,0,0,1,2.36-2.75c2.75-.69.31-.9-.16-1.3-6.64-3.32-11.44-9.18-17.93-12.68-1.44-.78-3.43-2.16-2.32-4.29,1-1.87,3.1-1.69,4.93-1.38,2.62.45,4.92,1.75,7.26,2.91,4.15,2.11,7.65,5.27,11.84,7.29,2.63.45,4.58-2.64,8.37-1-1.87-3-4.36-3.62-6.36-4.79-4.72-2.89-8-7.77-13.31-9.81-7.19-4.54-14.2-9.36-21.24-14.13-2.11-1.42-5.71-3.18-4.21-5.8,2-3.46,5-.09,7.27.28-8.57-15.9-13.7-33.94-23-50.06.72-4.1,5.31-7.22,2.18-12.51-1-1.75,2.68-4,5.26-4.87C623.67,98.59,627.86,102.84,630.44,109.17Z"/><path class="cls-7" d="M716.81,274.81l.33,15.8c-.82,3.62-3.69,5.27-6.6,6.9-4.95,1.24-10,.81-15,.59-5.53-.24-9.84,1.35-12.94,6-5,7.5-11.61,13.71-17,20.88-8,8.72-15.65,17.76-23.34,26.76-10.91,14.23-19.83,29.17-17,46.65,1.9-15.68,5.63-32.34,16.83-46.36,7.64-8.69,14.87-17.73,22.86-26.11,2.89-2.78,4-7.5,8.79-8.23,4.83,2.22,2.89,5.34,1.12,8.44-4.79,3.72-8.26,8.61-11.82,13.42-14.5,20.7-26.18,42.6-29.75,68.08-1.34,9.53-5.45,18.36-7.27,27.8-1.47,7.59-3.28,15.11-2.66,23.3,6.14-20.21,6.42-41.32,12.49-61.15,6.33-20.64,14.2-40.73,27.46-58.18,3.17-2.78,3.68-8.6,9.51-8.35.59,6.12-4.79,10-5.92,15.43-8,16.33-12.94,33.75-18.63,50.9-5,14.95-7.15,30.57-10.42,45.92-4.07,19.08-9.67,37.56-19.32,54.67-5.33,9.44-10.56,19-13.3,29.62,10.27-23.78,23.42-46.25,29.93-71.72,7.77-30.42,14.66-61.08,24.24-91,1.87-5.85,5-11.17,7-16.93a220.42,220.42,0,0,1,15.21-29.25c1.35-2.18,2.57-4.68,5.45-5.39,2,.39,2.53,1.93,2.88,3.61,0,8.64-4.74,15.65-8.29,23-2.23,4.62-4.3,9.07-4.15,14.34a21.26,21.26,0,0,1-3,10.64c-14.63,27.18-23.37,56.47-29.78,86.41-2.88,13.48-10.19,25.14-13.37,38.32-5.08,21-18.27,38.25-26.71,57.71C600,558,595.89,568.65,593,581c5.5-3.27,3.78-9.44,8-11.93,8.33,1.54,8.82,3,4,11.8-3.14,3.44-7,6-9.68,10.14-2.92,4.57-7.62-.53-11.4.86,8.24-26.78,7-55.77,19.28-81.62,4.63-9.75,12.12-18.69,12.12-30,0-21,2.26-41.68,5.14-62.39.92-6.66-1.66-13.1-3.53-19.47-7-23.76-1-43.9,16.88-60.74,1.46-.66,2,.28,2.46,1.4-.54,4.14-4.79,5.52-6.53,8.76-1.64,2.71-3.57,5.22-6.19,9.41,2.7-4,4.44-6.52,6.13-9.07,8-10.64,19.87-17.21,28.77-27,6.21-6.84,12.27-13.83,18.67-20.51,1.36-1.42,2.39-2.83,1.54-4.9,7.88-2.6,16-.83,24-1.15,3.37-.13,6.32-.6,8-3.57.61-1.06-1.13-1.24-2-1.51C708.45,283,712.75,279,716.81,274.81Z"/><path class="cls-8" d="M653.18,217.73c-2.5,1.63-5.91-.94-8.17,1.79-34.08-19.8-54.51-49.41-63.65-87.45-3.6-15-5.72-30.18-8-45.37-.92-6.11-3.23-12-4.33-17.83-.64-3.44-2.25-8.35.5-12.56,1.34-2.05,2.19-.45,2.69-.15,2.95,1.77,6.32,3.29,8.49,5.81,11.19,13,26.21,20.22,40.58,28.67C633.85,98,646,106.31,656.14,117s23.45,16.38,34.26,25.76c3,2.6,5.93,5.27,8.9,7.91a4.81,4.81,0,0,0-4.68,3.24c-16-11.66-32.09-23.26-48-35-4.91-3.61-9.52-7.63-14.27-11.47-6.06-2-9.22-8.31-15.31-10.27-10.74-6.76-23.23-10.63-32.46-19.88,6.33,7.21,13.63,12.89,23.07,15.44A22.28,22.28,0,0,1,616,97.13a1.46,1.46,0,0,1,.6,1.23q0,.72-.21.72c-5.18,5-5.18,5,.75,8.5-2.2,2.87-5.81,4.45-7.3,7.92-11.4-3.8-19.74-11.75-28.57-21.13,8.09,35.12,16.26,69,40.5,96.18,7.49,8.39,17.46,13.85,26.13,20.87C650.05,213.14,653.41,214,653.18,217.73Z"/><path class="cls-9" d="M635.47,339.27l-1.66-1.59c9.15-12.27,19.16-23.89,27.16-37,.44.59.88,1.19,1.33,1.78,3.65.66,5-2.78,7.52-4.2,2.29-1.3,4-4.47,7.31-2.11l.28.41c1.34,2.8-.53,4.53-2.25,6.14-12.36,11.56-24.64,23.18-36.26,35.5C638,339.13,637,340.09,635.47,339.27Z"/><path class="cls-1" d="M825.75,624.26c-1.07-3.25-2.11-6.52-3.24-9.76-.6-1.71-.6-3,1.35-3.87,1.21-.51,3.21-1.58,3.58-.54,2.7,7.53,4.79,2.07,7-.21,1.64-1.7,3.66-2,5.83-1.88,0,2.93.08,5.85,0,8.77-.31,9.84-4.49,12.67-13.16,9Z"/><path class="cls-1" d="M798.67,640c-5.61-3.52-2.93-6.59.8-9.06,2.66-1.76,5.53-3,6.92-6.24,1.29-3,3.27-5.74,7.1-5.34,4.69.48,2.7,5.08,4.3,7.5Z"/><path class="cls-10" d="M958.16,121.57c3.4-9.92,5.41-20.51,13.74-28,.86-.77,1.6-2.43,3-.62.45,8.14-5.82,13.16-9.32,19.4-3.16,5.64-1.84,10.83.26,16,1.35,3.32-.61,4.66-2.35,6.45-3.81-3.18-3.89-7.22-2.33-11.41.5-1.34,2.5-2.54,0-3.51C960.53,119.56,959.2,120.94,958.16,121.57Z"/><path class="cls-11" d="M986.1,184.49c-.92-1.61.54-4.1-1.92-5.13l6.65-10.14C990.49,176.26,987.57,180.14,986.1,184.49Z"/><path class="cls-12" d="M1086.6,272.15c-.29-1.12.35-2.69-1.49-3.06a11,11,0,0,1,6.2-5.86C1090.79,267.14,1088.7,269.65,1086.6,272.15Z"/><path class="cls-2" d="M1045.34,291.61c1.5-.87,1.73-3.42,4.14-3.16,1.12,2.33-1.37,3.91-1.23,6,0,.26-.06.66.08.77.81.61,1.26.12,1.58-.62,3.56.59,2.41,2.81,1.69,4.89-1.45,2.84-2.62,5.87-4.4,8.49-4.44,6.52-6.73,17.31-19.54,9.23,6,4.68,11.82,7,12.82,15,1.11,9-.28,16.94-5.13,24.34a175.12,175.12,0,0,1-11,15.62c-13.21,16-19.9,33.75-19.83,54.86.09,23.88-6.45,46.93-14.92,69-11.9,31.06-19.29,63.5-30.63,94.68-5.36,14.72-12.36,28.86-17.57,43.62-8.58,24.32-10.38,49.88-12.17,75.38-.16,2.36.19,4.8-1.42,7.19-3.07-2.53-6.27-4.48-6.24-9.33.15-22.09.7-44.17,2.24-66.21.39-5.46.59-11.17,7.06-14.05,1.67-.75,2.84-3.93,3.18-6.16,2.86-18.78,10.22-36.35,14.57-54.65,5.39-22.66,12.54-44.92,15.21-68.32,1.66-14.43,12.4-25,21.54-35.71,7.26-8.48,12.73-17.64,10.1-28.77-6.49-27.48,5.6-50.71,16.65-73.83,5.67-11.87,9.3-22.88,5.58-35.82-1.95-6.8-1.7-13.36,3.21-19.52,5.33-6.69,8-15,11.45-22.74,3.11-.37,2,1.78,2,3.3.67.56-2.71,4.29,1.53,2,1.11-.6,2-1.63,4.13-3.45-1.3,3.7-2.12,6.05-3.06,8.74,2.3,0,2.64-1.57,3.39-2.68,2.47,2.8,2.47,2.8-.27,8.78C1041.2,295.81,1042.46,293.1,1045.34,291.61Z"/><path class="cls-2" d="M1004.9,270.39c-3.83,6.69-8.22,13.12-11.33,20.13-2.61,5.9-7.17.73-10.88,3.24,8.89,1.58,9.25,7.55,9.5,14.64.58,16-.31,31.94-1,47.87-.77,17.64-7.8,34.14-10.35,51.49-.34,2.29-1.61,4.31-.33,6.87,3.44,6.89-.91,14.47,1.32,21.79l-3.51-3.23a7.29,7.29,0,0,0-.35,2.24c1.28,6.29.38,11.35-4.35,16.67-11.14,12.54-16.72,27-18.7,44.45-2.93,25.76-10.18,51.05-17.76,76-1.47,4.82-2.95,9.64-4.28,14.51-1.85,6.75-4.34,13-9.71,17.95-14.07,13-15.91,31.36-19.88,48.5-2.61,11.3-3.13,23.09-4.61,34.81-11.69-6.31-14.25-12.93-11.33-25.8,3.81-16.82,13-31.36,19.19-47.16C917,588.49,929,562.12,936.1,534c3-11.88,6.28-23.63,11-34.94,6.74-16,9.38-33.21,13.94-49.86,7.51-27.49,14.71-55,15.61-83.63.75-23.73.13-47.37-5.32-70.63-.55-2.36-1.32-4.6-.14-7,7.35-14.67,12.47-30.46,22.53-44.07-3.82,7.34-.33,14.53.25,21.66.26,3.06,1.84-1.5,3.28-1.09.82.14.69,4.19,2.45.56.68-1.4,2.21-1.95,3.54-2.63l.26.21C1006,264.19,1006,264.19,1004.9,270.39Z"/><path class="cls-2" d="M910.43,537.36c5.36-23,10.24-46.09,14-69.41.53-3.38.46-6.86.68-10.29-.39-.32-.49-.61-.32-.86s.31-.36.46-.36a242.06,242.06,0,0,0,5-37c13.13-41.25,18.9-83.34,15.44-126.66-.79-9.87-4.5-18.41-8.49-27.05-1.11-2.42-3.67-4.89-3.41-7.08a264.61,264.61,0,0,1,7.59-40.44c-2.73,10.84,3.5,21.59.56,32.6q3.69-8.39,7.39-16.76c1.44-.45,2.19-.19,1.52,1.5-.47,1.73-.94,3.45-1.61,5.87,3.41-1.09,2.88-5,5.8-5.42,1.63,2.47-1.72,4.83-.35,8l10.8-19.29c-5.33,15.31-3.92,32.9-16.11,45.71-3.31,3.49.14,7.73,1.9,10.78,11.92,20.68,12.43,42.85,9.47,65.59-.51,3.95-1.46,7.94-1.28,11.87,1.15,25.15-7.34,48.27-15.53,71.26-6.22,17.46-7.91,35.77-12.41,53.52-4.32,17-11,33.25-17,49.71-.9,2.49-1.64,5-2.46,7.56C909,540.8,910,539,910.43,537.36Z"/><path class="cls-2" d="M896.27,401.69c2.17,19.54,4.19,39.11,6.57,58.63,1.07,8.73-1.08,17.69,3.67,26.36,1.69,3.08-2,9-3,13.68-4.28,19.72-13.74,37.11-24.85,56.2,1.81-18.4,4.3-34.54,4.8-50.74a811.1,811.1,0,0,0-4.07-106c-1.89-18.87-.49-37.76.77-56.56.73-10.87,1.55-21.73,1.91-32.62,1.57-9.94,3.22-19.86,4.66-29.82.37-2.58.81-5.49-1-7.74-6.93-8.76-3.56-17.75-.86-26.78.41-1.38,1.05-2.64,2.61-2.41s1.64,1.76,1.91,3.09c5.32,26.46,10,53,.22,79.39-7.57,20.4-4.51,40.25,2,60.1C893.36,391.47,894.75,396.6,896.27,401.69Z"/><path class="cls-2" d="M915.33,409.48q-.76,5.7-1.54,11.41c-2,3.45.47,7.74-2.79,13-2.52-12.36.07-23.26-1.75-33.82-3.71-20.72.18-41.17,2.09-61.7,1.1-11.86,5.41-23.52,3.86-35.46-2.65-20.47-1.53-42.05-15.44-59.65-1.32-1.67-3.08-4.06.65-4.46,9.79-1.06,12.66-8.28,15.29-16,.49-1.42.79-3.17,2.67-3.66,1.76-.71,2,.17,1.74,1.63-2.23,7-4.43,14-6.71,20.9-1.55,4.7.36,8.75,2,13,3.31,8.33,7.17,16.57,9.35,25.21,5.19,20.56,5.11,41.22,1.61,62.31-3.38,20.37-5.87,40.88-10.81,61C915.1,405.17,915.4,407.37,915.33,409.48Z"/><path class="cls-2" d="M869.26,630.87c7.35-8.85,13-18.76,17.71-29.18,3.4-12.83,7.56-25.32,16.38-35.66,2.53,1.41,1.66,3.49,1.09,5.51-5.52,16.37-8.39,33.62-21,47.24-7.39,8-10.81,19.09-15.54,29.28C858.85,641,868.26,636.41,869.26,630.87Z"/><path class="cls-13" d="M909,211.06a31.71,31.71,0,0,1-14.15,8.73c9.12-9.37,17.88-16.54,22.93-27.19l-17,12.85c5-7.41,10.41-14.36,17.82-19.5,4.35.69,5.66-4.75,9.65-4.79,3.33.26,1.07,1.81.68,2.93-3.53,10.19-11.29,17.11-18.75,24.26A2.85,2.85,0,0,1,909,211.06Z"/><path class="cls-14" d="M909,211.06c0-1.07,0-2.15,1.17-2.71,5.7-.61,8.91-5.9,15.14-8.39-5,12.67-16.64,17.79-24.14,26.94,5.16,1.35,8.25-2.3,12.25-3.56C911,228,911,228,887.41,233.52l27.38-22.46Z"/><path class="cls-15" d="M909.25,400.08c3.3,9.92.47,20.25,1.83,30.77,2.5-3.25-.4-7.4,2.71-10,.77,18.12,4,36.28-1,54.36,3.8-21.64-5.26-42.48-3.7-64C909.13,407.55,909.19,403.81,909.25,400.08Z"/><path class="cls-16" d="M904.44,571.54c-.53-1.74.22-3.93-1.82-5.13-1.92-3.72-1.06-6.8,2.12-9.36,3-6.26,2.34-13.55,5.69-19.69.53,1.12,1.07,2.23,1.61,3.35A185.84,185.84,0,0,1,904.44,571.54Z"/><path class="cls-17" d="M928.24,181.16c-1.64,3.05-4.74,4.5-7.28,6.53-2.31,1.85-2.27-.21-2.37-1.74a56.13,56.13,0,0,1,20.25-19.87c-3,6.51-9.06,9-11.7,14.22-.06.11.17.46.35.59A2.57,2.57,0,0,0,928.24,181.16Z"/><path class="cls-18" d="M1004.9,270.39c-2.77-2.17,1.53-5.58-1.36-7.73,2.55-5.07,5.48-9.64,13.22-8.82C1012.66,259.55,1008.78,265,1004.9,270.39Z"/><path class="cls-19" d="M938.87,186.05c-6.14,4,2.53,13.82-6.77,16.95C927.43,194.43,934.72,190.85,938.87,186.05Z"/><path class="cls-20" d="M857.23,248.54l21.88-10.07C873,244.34,866.26,248.79,857.23,248.54Z"/><path class="cls-21" d="M1045.34,291.61,1038,304.39c-1.82-5.9,4.25-9.52,2.27-14.58.46-2.09,1.4-3.74,3.46-4.51C1045.74,287.29,1042,290.26,1045.34,291.61Z"/><path class="cls-22" d="M920.11,220.79l-1.74-1.63c6.91-3.22,11.4-9.35,17-14.18C931.46,211.42,928.18,218.44,920.11,220.79Z"/><path class="cls-23" d="M1051.6,299.51c-.63-1.61.43-3.8-1.69-4.89.27-5.81,7.63-4,9.13-8.59C1058,291.43,1055.2,295.68,1051.6,299.51Z"/><path class="cls-24" d="M1003.28,262.45c-1.57,3.54-4.11,6.32-7.76,9.82.76-3.32,1.27-5.54,1.77-7.75,3.34-1.58,1.7-6.78,5.83-7.95C1005.22,258.51,1000.21,260.66,1003.28,262.45Z"/><path class="cls-25" d="M1034.28,285.19c-.43-1.24-.16-2.89-2-3.3a37,37,0,0,1,8.21-13.56C1038,275.22,1036.12,280.21,1034.28,285.19Z"/><path class="cls-26" d="M950.78,235.51l-1.52-1.5a35,35,0,0,1,6.58-12.16C955.63,227,953.55,231.37,950.78,235.51Z"/><path class="cls-2" d="M1044.54,682.22c1.65-27.47,4.31-54.58,11.6-81.1,7.95-28.93,16.28-57.73,21.87-87.31,4.12-21.79,11.1-43,17.4-64.37,1.52,10.71-2.55,20.63-4.33,30.8a300.25,300.25,0,0,0-4.06,53.13c.11,24.78-4.45,48.93-15.46,71.13-11.66,23.52-21.08,47.56-25.37,73.52A21.53,21.53,0,0,1,1044.54,682.22Z"/><path class="cls-27" d="M1014.88,722c-.41-1.47-.52-3.1-2.2-3.85l6.73-11.1C1020.25,713,1017.62,717.47,1014.88,722Z"/><path class="cls-2" d="M664.26,324.85c5.61-7.42,11.55-14.61,16.71-22.33,3.7-5.53,8-7.75,14.64-6.89,5,.64,10.09-.74,15,.8a1.45,1.45,0,0,1,1.31,1.23c4.41,21.66,4.79,43.82,8.1,65.65,1.54,10.16-2.12,20-8.22,28.5-19.48,27.05-32.69,57-43.39,88.47-7.76,22.86-19,44.53-26.65,67.52-2.52,7.55-4.34,15.33-6.48,23-4.94-1.76-2.94-5.65-2.5-8.82,2.65-19.18,9.64-37.1,16.9-54.82,7.68-18.75,14.24-37.87,20.94-57a138.74,138.74,0,0,1,14.53-29.28c7.39-11.45,13.08-23.73,18-36.37,2.68-4.8,3.76-10.2,5.53-15.35-1.63,4.59-2.64,9.42-4.91,13.78-3.17,7.87-6.37,15.74-10.9,22.94-2.2,3.5-3.72,7.79-8.43,9-1.94-.57-2.39-2.12-2.57-3.86q6-15.56,13-30.73c10.66-23.18,12.72-47.29,8-72.71a197.11,197.11,0,0,1-10.37,18.49,67.57,67.57,0,0,0-9.31,21.93c-2.41,10.95-6.5,21.39-9.16,32.2-6.94,28.23-18.21,55-26.39,82.85-6.08,20.68-16,40-24.42,59.77-5.39,12.73-10.51,25.57-16.06,38.23-1.38,3.16-2.33,6.58-5.71,8.36-2.81,5.69-2.05,13.71-11.42,16.17a141.5,141.5,0,0,1,12.09-38.55c10.3-22,22.38-43.08,30.57-66.3,7.81-22.12,12.72-44.87,19.51-67.17a294.84,294.84,0,0,1,20.38-49.27c.49-.94,1.32-1.91,1.33-2.87.06-16.32,10.86-29.07,14.6-44.14-.54-5,2.71-8.78,3.9-12.88-1.22,1.88-1.35,5-3.92,6.42a2.67,2.67,0,0,1-2.71-1c-5.4.94-6.71,7.54-12,8.65l-8.12,7.89C664.39,326.79,663.68,326.45,664.26,324.85Z"/><path class="cls-2" d="M808.3,449.83c1.08.37,2.5-3.55,3.05,0,.29,1.88-.9,4.11-1.76,6-4.61,10.34-6.92,20.39-.53,31.21,2.85,4.84,1.37,11.19,2.47,17,2.72-10.86,8.83-21.31,3.73-32.9a14.06,14.06,0,0,1-.19-12.08c4.33-10.29,3.88-21.33,5-32.18,3.47,18.62,2.19,37.24,1.15,56-1.19,21.58-6.35,42.6-7.46,64.19a356.45,356.45,0,0,0,.28,41.48c.57,8.77-.69,16.56-7.2,23.46-6.37,6.73-11.8,14.4-17.23,22a29.14,29.14,0,0,1-10.19,8.71c3-13.35,5-26.06,14.6-36,6.28-6.52,7.68-15.29,8.08-23.71.82-17,3.15-33.89,4.79-50.82.62-6.35.89-12.74-1.68-18.83a235.39,235.39,0,0,1-8.85-35.41c-1.8-11.49-19-21.21-31.55-17.71a91.73,91.73,0,0,0-33.13,16.62c-3.57,2.87-7,6.76-12.41,5.67,7.25-16.72,22.5-25.14,36.37-34.7,8.38-5.78,24.45-3.05,32.19,3.41C794.84,457.07,801.63,452.8,808.3,449.83Z"/><path class="cls-28" d="M601.57,569.47c13.3-31.54,27.08-62.88,39.71-94.69,6.83-17.23,11.35-35.37,17.53-52.88,8.66-24.55,16-49.47,22.47-74.65A76.14,76.14,0,0,1,691.44,324c4.62-7,8.94-14.25,11.93-23.8,7.1,27.54,5.39,52.91-4.88,77.62-4.68,11.26-10,22.24-15.08,33.34-1.58,11.46-9.95,20-13.14,30.82a55.24,55.24,0,0,1-2.62,5.72c-9.53,26.19-22.26,51-32.15,77.06-5.86,15.47-9.26,31.54-12.9,47.58-.47,2.08-.18,3.62,1.52,4.88-3.16,3.91-7.47,1.22-11.18,1.94-2.28-2.76-.8-5.58-.08-8.34,8.21-31.49,20.65-61.32,33.64-91.13,16.11-37,33.8-73.51,42-113.55,2.43-11.92,7.77-23.22,8.17-35.32-7.08,10.21-10.39,22.31-13,34.56C675.72,403,663,439.17,648.81,474.7c-8.65,21.67-19.42,42.54-27,64.68-4.93,14.31-9.1,28.87-14.8,42.91l-2-1.42c.06-1.33-.35-2.94.26-3.94C608.06,572.31,604.56,571.07,601.57,569.47Z"/><path class="cls-2" d="M793.59,526.52c.21,15.8,3.07,31.59.44,47.41-1.34,8.1-5.73,14.36-12.25,19.73-2.19-4.1,0-7.75-.75-11.25,4-19.3,3.56-38-7.48-55.29-2.36-3.71-5.33-7.09-9.63-7.86-9.71-1.72-18.74-5.19-28-8.53-15.69-5.67-31.77-.31-42.32,12.47-5.23,6.35-5.23,6.35-13,6.13,4.29-10.1,8.18-20,15.39-28.45,11.94-14.05,26.22-9.6,40.16-5.58a57.94,57.94,0,0,0,19.45,2.48C769.06,497.14,789.59,506.05,793.59,526.52Z"/><path class="cls-2" d="M773,588.82c-1.73,3.82-3.3,7.58,4.13,7.59-2.75,3.71-5.93,6.47-6.22,11.4-.18,3.13-3.65,4-5.81.2.41-21.73-12.09-34.92-29.07-46-12.81-8.36-26.59-5.72-40.2-6.2-3.16-.11-6.34.79-9.52.93-5.76.24-9.24,3-11.25,8.43-2.09,5.65-4.13,11.49-9.85,15.59-2.78-4.63-2.88-8.07.81-12.53a50.67,50.67,0,0,0,8.23-15.4c3.2-9.11,10.49-12.76,18.66-14.36,17.88-3.48,35.9-4.55,53.79.52,5.28,1.5,9.9,3.72,12.51,9,.8,1.61,2.08,3.67,3.57,4.13,10.39,3.21,10.31,11.57,10.3,20C773,577.67,773,583.25,773,588.82Z"/><path class="cls-2" d="M754,612.8c.07,2.63.61,5.37.09,7.88-.68,3.21-3.16,6.23-6.21,6.47s-2-3.67-2.65-5.73c-.92-2.93-2.27-5.15-5.16-6.57-16.64-8.2-34.26-9.88-52.48-8.56-8.36.61-13,4.9-15.18,12.58.51-8.69-5-16.72-2.29-25.81,2-6.57,6.4-10.45,12.3-10.48,19-.11,38,.68,56.37,6.37,8.05,2.49,12.88,8.8,13.1,17.23C752,608.66,752.26,610.92,754,612.8Z"/><path class="cls-2" d="M607,582.29c-1-3.88.55-7.53,1.75-10.89,10.62-29.79,19.94-60.06,34.85-88.22,8-15,12.06-31.77,17.49-47.88,5.08-15.1,9.65-30.38,14.8-45.46,3.64-10.63,4.56-21.82,7.48-32.59,3.2-11.81,7.37-23.11,15.92-34.29-.53,8.83-.81,16.09-2.8,23.15-5.86,20.71-10.91,41.7-18,62-10.46,30.16-24.35,59-37.52,88-12.14,26.78-20.61,54.69-28,83C611.46,581.19,609.85,583,607,582.29Z"/><path class="cls-2" d="M825.65,387.78c-7.55,4.67-11.25,11.46-11.18,20.32,1,.78.84,1.23-.4,1.36l-4.26,14.61c-9,12.3-14.16,14-29.12,10-9.85-2.63-19.81-4.33-29.78-.78-3.26,1.17-3.64-.08-3.36-2.71,2-3.8-1.21-8,1.28-12,1.67-2.69,2.87-5.47,6.06-6.64,3.4-1.17,6.12.37,8.84,2.18,12.14,8.06,24.2,5.33,36.09-.56a13.5,13.5,0,0,0,7-9.31c1.81-8,6.86-13.55,12.39-18.86-.22-2.07-3.31-1.79-3.31-4,.48-1.7,2.46-.89,3.3-2,2.06,0,4.54-.65,6.1.24C829.1,381.84,830.87,384.83,825.65,387.78Z"/><path class="cls-29" d="M704.53,384.35c-4.45,16.32-13.29,30.45-21.8,44.85-14.28,24.15-19.18,52.12-30.49,77.56-8.07,18.15-14.71,37-17.46,56.84-.33,2.38-2.45,5,.55,7.2-3,2.44-6.35-2.2-9.36.42-3-3.52-.72-7.13,0-10.58,5.95-27.92,17.14-54,28.25-80.13,4.47-10.49,8-21.32,12.18-31.89,4.44-9.46,8.29-19.19,13.81-28.13,1.39-2.23,2.43-4.62,4.76-6.07a209.55,209.55,0,0,0,17.9-31.8C704.35,382.32,705.16,382.65,704.53,384.35Z"/><path class="cls-2" d="M671.81,629.07c6.85,4.62,10.55,12.09,16,17.74,4.78,5,13.68,5.59,21.32,5.94.51-.55.9-.45,1.19.23,4.64,2.67,9.35-.57,15.33.25-6.64,7.06-9.53,16.67-20.59,18.5l1.71-4.32L684.31,669c-3.95-.05,8.55-4.46-1.51-4.8-5.43-.19-10.1-8.63-13.71-14.61C670.24,642.76,664.56,635.06,671.81,629.07Z"/><path class="cls-2" d="M667.59,448.24c-7.16,23.29-16.82,45.64-25.8,68.24A281.41,281.41,0,0,0,626,571.22q-.93,3-1.85,6c-6.29,2.09-4.39-2-3.66-5,4.37-17.7,8.29-35.41,14.95-52.58,9.58-24.68,21.45-48.35,30.8-73.09C667.52,446.43,668.51,446.52,667.59,448.24Z"/><path class="cls-2" d="M752.14,644.53c-1.74,5.49-3.1,11.16-5.4,16.41a10.16,10.16,0,0,1-7.12,5.7c-3.79-18.2,8.71-28.35,19.21-39.5-1,5.84-6.91,9.66-6.44,16.06A1,1,0,0,0,752.14,644.53Z"/><path class="cls-2" d="M712,297.66l-1.31-1.23c3.21-.78,4.3-3.9,6.48-5.82,12,9.11,8.7,23.82,13,35.74-2.28,1.17-1.66,3.48-2.11,5.37-2.68-8.77-5-17.68-8.22-26.22C718.59,302.22,718.43,296.33,712,297.66Z"/><path class="cls-2" d="M667.3,687.84l-3.56-6c-4.55,8.79-11.2,12.9-19.23,15.3,5.29-5.66,9.9-11.54,10.93-19.48.5-3.87,3.21-2.54,5.43-2C666.66,677.11,669.05,681,667.3,687.84Z"/><path class="cls-2" d="M639.2,716.34c11.38,2.57,16.89-2.38,23.17-8.56,6-5.88,11-11.11,10.18-20.24,3.28,9.72.25,16.83-7.79,22-2.31,1.49-3.58,4.51-5.5,6.69C653.42,722.9,647.81,723.26,639.2,716.34Z"/><path class="cls-2" d="M765.32,646.92c3.41-8,.6-16.68,2.67-24.9.83-3.28,1.35-6,5.19-7.09.53,11.82-2.84,23-3.83,34.48-1,1-2.17,2.78-3.58,1.67C765,650.48,765.43,648.36,765.32,646.92Z"/><path class="cls-2" d="M680.07,481.2l1.71,2c-4.73,13.29-11.81,25.49-17.66,38.26-1.52.49-2.15-.05-1.87-1.64C666.87,506.35,673.54,493.8,680.07,481.2Z"/><path class="cls-30" d="M662.25,519.83l1.87,1.64-15.76,43.74-2.1-.73Z"/><path class="cls-31" d="M755.66,413c-7,3.88-5.84,11.53-8.11,17.6-.59-1.66.16-3.81-1.78-5-.17-5.41,2.6-9.8,5-14.33C752.91,410.37,754.45,411.22,755.66,413Z"/><path class="cls-2" d="M635,722.69c5.45,4.08,10,5.17,15.12,6C643.64,732.82,641.94,732.23,635,722.69Z"/><path class="cls-2" d="M666.6,713.35c.47,7.26-3.11,9.3-8.59,12.54Z"/><path class="cls-32" d="M755.66,413l-4.91-1.72c-.33-1.8-1.6-4.49-.86-5.26,8.24-8.55,10.82-21.65,22.51-27.46,10.72-5.33,21.53-6.93,33.05-2.91,4.46,1.56,8.74,4,13.71,3.75-.1,1.76-1.77,1.38-2.71,2-3.29,1.75-6.69,1.12-10,.35-6.34-1.46-12.69-2.72-17.16-2.07,10.33.64,22.59,2.74,34.89,4.62-7.42,5-13.31,11-15.33,20.16-1.72,7.73-6.74,11.58-14.49,13.85-12.09,3.54-23.31,4.89-33.52-4.24A4.8,4.8,0,0,0,755.66,413Z"/><path class="cls-33" d="M779.81,342.24c-5.49-17.49-15-32.72-26.5-46.8-6.3-7.72-12.46-15.52-17.26-24.3,30.07,20.75,44.65,52.94,61.17,85.44,1.87-9.67,1.65-11.1-7.46-21.57a16.93,16.93,0,0,1-4.43-13.66c2-26.26-2.5-41.39-20.09-68.38,6,2.26,9,6.55,12.07,10.42,15.28,19.05,21.29,41.32,22,65.29.08,2.42-.58,5.18,1.21,6.89,8.92,8.59,3.33,21,10.15,31.55-6.94-2.2-10.77-7.31-16.71-5.57-4.44-1.3-6.87-5.07-10-8.06a13.34,13.34,0,0,1-1.25-1.82A20.1,20.1,0,0,1,779.81,342.24Z"/><path class="cls-34" d="M785.8,363.4c-9.64-.86-14.72-8.67-17.46-15.57-9.92-25-28.53-45.19-37.64-70.55,3.24-1.3,4.55,1.64,6.34,3.33a45,45,0,0,1,9.82,14.45c8.06,17.83,21.13,32.38,31.06,49,3.14,1.93,4,5.63,6.38,8.15l-.1-.13a76.83,76.83,0,0,0,5.08,6.82c1,1.17,2.24,2.6,1.27,4.11C789.36,364.85,787.48,364.2,785.8,363.4Z"/><path class="cls-35" d="M842.93,278c4.21,13.48,14.08,22.81,22.54,33.22,4.41,5.44,2,21.14-3.24,26.17-1,1-2.05,1.74-3.49,1.21-2-.71-3.36-2.37-3-4.24,2.76-16.2-4.49-29.41-12-42.75-2.06-3.65-2.26-8.35-3.31-12.57Z"/><path class="cls-36" d="M910.56,158.49a61.54,61.54,0,0,0-17.63,20.57c-6.53,12.07-18.1,20.67-30.43,27.46-4.4,2.42-9.24,4.17-12.83,7.9-2.51,1.81-4.83,3.9-7.77,5.05l-13.57,11.17c-.19-1.29-.48-2-.3-2.18C845.87,215,857,194,878.78,184.71c7.17-3.05,14.91-7,17.18-16.75,1.39-5.94,8.27-7.77,13-11C910.67,156.32,910.94,157.08,910.56,158.49Z"/><path class="cls-37" d="M810.34,226.07c1.39-4.1-.16-8.42,2-12.34,2.05,4.66-.53,10.23,3.34,14.56,1.65-4.14-.91-9,3.72-12.52a25.65,25.65,0,0,0,7.09,21.73c-14.09-.31-20.25-6.25-19.3-18C809.38,221.1,807.41,224.66,810.34,226.07Z"/><path class="cls-38" d="M852.38,278.75c5,6.67,8.66,11.46,12.21,16.35,1,1.34,3.29,2.83,1.23,4.63a4,4,0,0,1-6.27-.71C855.49,293.64,853,287.67,852.38,278.75Z"/><path class="cls-39" d="M910.5,152c-3.19,2.33-6.28,4.83-9.61,7-5.35,3.42-9.4,7.68-10.26,14.39-2.13-6.58,1.08-11.12,5.69-14.72,3.94-3.07,8.37-5.51,12.58-8.23C910.48,149.92,910.79,150.67,910.5,152Z"/><path class="cls-40" d="M814.56,193.65c.85,1.52,2.4,1.74,3.89,2.06L804.2,212.35C806,205.22,808.54,198.47,814.56,193.65Z"/><path class="cls-41" d="M910.5,152l-1.6-1.6c5.38-5.56,12.42-7.51,19.93-8.63C922.61,145.05,916.17,147.88,910.5,152Z"/><path class="cls-42" d="M785.8,363.4c1.38-.68,7.29,2.11,2.56-3.25-2.11-2.38-4.11-4.72-4.16-8.11,4.08,2.34,6.55,6.32,9.79,9.51C791.73,364.24,789.58,367.39,785.8,363.4Z"/><path class="cls-43" d="M841.49,320.44c-4.08-4.89-5.57-11-7.86-16.77a35.83,35.83,0,0,1,9.5,15.11C842.59,319.34,842,319.89,841.49,320.44Z"/><path class="cls-44" d="M943.1,124.38c-.05,6.61-4.27,10.52-8.73,14.28C936.07,133.11,940.7,129.47,943.1,124.38Z"/><path class="cls-45" d="M617.86,96.23c5.72,2.57,10,7,14.45,11.18-.62.59-1.24,1.18-1.87,1.76-4.58-3.5-7.63-9.12-14-10.09,0-.39-.12-.77-.2-1.15C616.29,96.91,617.24,96.72,617.86,96.23Z"/><path class="cls-46" d="M766.76,247.39c8.84,3,12.06,8.17,13.72,14.83Z"/><path class="cls-1" d="M867.69,497.62c-1.71.26-4,2.79-4.81-.77s-.16-6.73,4.45-7.19A14.28,14.28,0,0,1,867.69,497.62Z"/><path class="cls-47" d="M910.56,158.49,909,157c3.63-3.71,8.18-5.42,13.57-5.58Z"/><path class="cls-48" d="M841.9,219.47a8.86,8.86,0,0,1,7.77-5.05C847.28,216.42,848.6,224.12,841.9,219.47Z"/><path class="cls-49" d="M850,358.67l-1.49-3.2,3.76-10.1C854.05,351.32,852.23,355,850,358.67Z"/><path class="cls-42" d="M784.3,352.17a15,15,0,0,1-6.38-8.15l1.89-1.78C781.78,345.34,784,348.32,784.3,352.17Z"/><path class="cls-2" d="M829.24,606.25c8-27.8,2.8-56,4.47-83.92.63-10.66,3-21,4.07-31.59,2.11-20.56.57-40.5-3.85-60.87-3.77-17.35.11-35.41,5.29-52.6a6.9,6.9,0,0,1,4.24-4.6c.22,6.84,0,13.67-2.18,19.8-5.31,14.93-3.95,29.82-1.71,44.92,4.42,29.81,4.2,59.89,4.89,89.91.32,14.08,0,28.16-.53,42.25a94.8,94.8,0,0,1-6.45,31C835.91,604.6,833.61,606.47,829.24,606.25Z"/><path class="cls-1" d="M904.74,557.05q-1.05,4.68-2.12,9.36A354.63,354.63,0,0,1,887,601.69c-4.48,1.27-10,.87-10.85,7.61-.15,1.24-1.82,3-3.52,2.34a5.51,5.51,0,0,1-3-3.29,56.74,56.74,0,0,1-.62-8.58c-.58-2.42,1-4,2.33-5.57a132.42,132.42,0,0,0,22.16-37.14c.85-2.19,1.83-4.44,4.56-5C901.7,551.74,902.14,555.85,904.74,557.05Z"/><path class="cls-2" d="M698,626l31.86,1.2c.51-.57.91-.51,1.22.19,3.47,2.83,10.48.42,11.27,6.69.5,3.9-9.66,9.29-15.62,9l.07,0c-7.39-3.22-15.5-1.28-23.13-3.26-10-2.58-10.2-2.46-7.35-12.6A2.18,2.18,0,0,1,698,626Z"/><path class="cls-2" d="M898,552c-6.8,17.66-16,33.86-29,47.73a81.6,81.6,0,0,1-6.13,6.07c-1.76,1.43-3.1,5.66-6.12,2.65-2.49-2.49,1.06-4.15,2.45-5.64,11-11.88,20.69-24.68,27-39.73a9.53,9.53,0,0,0,.38-1.51c.14-2.62,1.52-4.6,3.25-6.4,5.15-10.24,10.63-20.34,13.11-31.68,3.84.45,1.48,3,1.6,4.72Q901.26,540.15,898,552Z"/><path class="cls-1" d="M698,626l-1.68,1.22c-3.31-.43-4.59,1.26-5.25,4.34-.5,2.33-2.78,2.35-4.5,1.48s-2.84-2.51-1.69-4.56c1.51-2.71,2.66-6.05,5-7.78,2.8-2.1,7.72-2,4.49-7.64-.43-.74,1.72-1.68,3.08-1.76,2.33-.13,4.41.63,4.89,3,.41,2.06,3,4.25.19,6.4C700.61,622.18,698.59,623.47,698,626Z"/><path class="cls-1" d="M838.91,607.69c5.08-3.84.68-12.47,9.18-12.58,2.51,0,5,1.3,4.66,4.25C851.82,606.66,846.52,608.16,838.91,607.69Z"/><path class="cls-1" d="M872.26,333.6c0-3.59.23-6.8,4.7-6.92,3-.08,3.26,2.09,3.19,4.34-.1,3.59-2.18,6.39-5.29,7C872,338.58,872.52,335.32,872.26,333.6Z"/><path class="cls-2" d="M729.94,660.35c.74,6.77.74,6.77-10.42,13.19C723.35,668.3,725.72,663.94,729.94,660.35Z"/><path class="cls-50" d="M904.53,528.25c-.47-1.6.39-3.64-1.6-4.72l6.45-22.64C910.36,510.53,906.55,519.22,904.53,528.25Z"/><path class="cls-1" d="M731.08,627.39l-.65.19-.57-.38c.63-4.15,1.95-8,6.48-9.15.86-.22,2.29,1.78,3.45,2.75C737.05,623.21,735.22,626.83,731.08,627.39Z"/><path class="cls-2" d="M726.73,643.05c2,2.06,2.87,4.2.43,6.56-1.68,1.61-3.89,2.3-5.61.85-2.52-2.13-.27-3.48,1.46-4.69q1.9-1.34,3.79-2.69Z"/><path class="cls-51" d="M907.73,475.18V448.61C909.93,457.52,909.44,466.39,907.73,475.18Z"/><path class="cls-52" d="M788,601.63c2.83-8.83,3.84-11,5.67-12.2C794.6,594.7,792.91,598.46,788,601.63Z"/><path class="cls-1" d="M876.91,565.42c-.5,2.65,1.68,6.44-2.67,7a3,3,0,0,1-2.49-1.47C870.43,566.64,875.41,567.66,876.91,565.42Z"/><path class="cls-1" d="M814.07,409.46a1.24,1.24,0,0,1,.4-1.36c5.62-3,7.11-.69,6.34,4.9C817.52,413.47,816.68,409.77,814.07,409.46Z"/><path class="cls-1" d="M874.21,363.52c1.42,3,2.2,5.22-.46,7.22a2.12,2.12,0,0,1-2.07-.37C869.9,367.44,871.64,365.69,874.21,363.52Z"/><path class="cls-1" d="M889.82,555.21a11.74,11.74,0,0,1-3.25,6.4h-6.74C884.66,559.34,885.82,555.44,889.82,555.21Z"/><path class="cls-1" d="M690.42,613c-4.86,1.91-7.63-.71-11.34-.74C682.63,610.09,682.63,610.09,690.42,613Z"/><path class="cls-1" d="M799.31,544.74a4.55,4.55,0,0,1,2.89,4.18c.14,1.58-1.25,1.4-2.2,1.37-2.42-.07-3-1.63-2.78-3.72A1.87,1.87,0,0,1,799.31,544.74Z"/><path class="cls-1" d="M925.2,456.44a.81.81,0,0,1-.14,1.22c-1.46.08-2,4-4.09,1.08a3.12,3.12,0,0,1,.92-4.71C924.52,452.39,924.74,454.73,925.2,456.44Z"/><path class="cls-1" d="M710.27,653l-.65.18-.54-.41c.37-2.37.85-4.78,4.11-3.93a2.78,2.78,0,0,1,1.51,2.25C714.16,653.49,711.81,652.43,710.27,653Z"/><path class="cls-2" d="M853.85,616.47c-.94-2.48-4-3.74-1.84-6.84.31-.45,1.7-.78,2-.52C856.14,611.17,856.84,613.45,853.85,616.47Z"/><path class="cls-2" d="M745.9,208.18a63.28,63.28,0,0,0,24.43,16c11.23,4.19,17.4,14.5,25.4,22.54,3.75,3.76,7,8,10.71,11.83,5.71,5.86,10.1,12.35,11.12,20.68.44,3.67,2.48,6.68,4.17,10-11.54-1.49-17.83-7.77-22.24-18.49C790.87,249.81,775.3,235,754.29,226c-4.28-1.83-10.67-2.4-6.65-10.21,1.11-2.15-2.44-3.79-3.43-5.91C743.67,208.27,744.36,207.81,745.9,208.18Z"/><path class="cls-53" d="M833,176.37c2.16-7.41,3.82-13.13,5.59-19.21C845.16,165.28,844,169.66,833,176.37Z"/><path class="cls-54" d="M745.9,208.18l-1.69,1.74c-6.92-6.87-10.23-13.53-10.73-22.93C736.76,194.58,741.33,201.39,745.9,208.18Z"/><path class="cls-2" d="M653.18,217.73c-5.14-3.73-10.24-7.51-15.43-11.18C613,189,599.07,164.32,590.14,136c-4.77-15.09-7.73-30.55-11.23-46.34,9,10.49,20,18.14,31,25.83,6.44,7.37,9.26,16.59,13,25.36,3.83,9,6.71,18.52,13.26,26.87-4.24,1.17-7.18-2.42-11.23-1.55l26.49,18.13c.45,1.48-.47,2-1.65,2.31-5.41-.47-9.49-4.06-13.84-5.87,5.22,4.14,12.8,6.15,16.13,13.32-.26,1.26-.77,2.15-2.28,1.49-4-1-7.29-4.58-12.62-2.83,8.14,4.59,14.92,10.25,21.84,15.73.25,3.43-2.34,1.93-3.64,1.83-3-.21-5-2.85-7.48-3.53,2.63,2,6.75,2.69,8.07,6.74l9.4,8.51C660.23,222.29,657.16,218.75,653.18,217.73Z"/><path class="cls-55" d="M716.81,274.81c.14,6.49-6.07,9.45-8.15,14.7-5.93-.92-11.71-1.95-17.92-.94a10.31,10.31,0,0,1-11.06-6c-.81-1.67-1.86-4.29-4-.93-5.36.64-3.95-5.11-6.69-6.94,2.51,2,1.19,7.67,6.67,6.87,2.08.85,1.72,2.95,2.45,4.71-6.41,1-9.45-3.21-12.36-7.6-4-4.24-5.16-9.92-8.66-15.57,2,4.63,4.48,7.92,5.74,11.76.54,1.66,1.82,3.67-1.61,3.51-9-5.92-14.79-15-21.74-22.89-2.09-2.38-6.53-5.21-3.48-8.59s7.88-5.68,13-3.2c3.58,1.74,6.92,4,9.08,7.51a28.77,28.77,0,0,1,3.32,5.11c-.57-2-2.06-3.19-1.73-5,.07-3.19-3-4.79-3.9-7.67,3.12-1,5.51,1.51,8.32,1.54.53,3.77,2.91,6.68,4.63,9.89.17-2.53-5.61-4.34-.89-7.42,5.2,2.56,8.91,7,13.48,11.19-.4-4.48-4.3-6.29-6-10.58,7.33,2.58,14.78,2.51,20,7.7,3.56,3.51,3.2-1.74,5.1-1.71,6.29.08,11.25,2.16,14.2,8.19C716.49,266.45,716,270.72,716.81,274.81Z"/><path class="cls-55" d="M555.58,246.47l5.1,4.17c-3.63.65-6.13.71-8.6-.77-5.76-3.41-11.69-6.62-15.32-12.61,2.15,3.86,5.65,6.27,9.09,8.88,2.79,2.12,3.51,4.49-1.61,3.91-8.93-5-17.33-10.61-21.07-20.89a15.77,15.77,0,0,1-3.92-7.84c.3,3,2,5.12,2.63,7.64-2.24,5.64-4-.33-6-.24-2.75-.71-4.09-2.87-5.3-5.14-.45-1-1.37.37-.5-.26.11-.08.27.08.48.49,2.15,4.36,2.15,4.36-1.45,5.43-3.83-4.71-7.76-9.34-11.44-14.16-2.27-3-4.95-6.59-3.14-10.17,2.16-4.27,7.16,1.1,10.31-1.72,1.45,3.7,2.74.48,4.32.05,6.61-1.8,10.59,1.16,11.72,8.2,2.47-2.56-.84-6.07,2-7s4.81,1.66,6.46,3.85c.8,1.06,2,2,2.31,3.23,2.41,8,10,9.73,16,13.39,9.24,5.69,15.85,13.86,21.8,22.68.34.5,0,1.44,0,2.75-4.92-.53-8.33-3.57-12.17-5.57-2.32-.53-4.49-1.31-5.58-2.87C552.71,243.13,554.49,244.5,555.58,246.47Z"/><path class="cls-56" d="M460.89,218.28c-7.43-4.17-12.42-11.7-20.86-14.64-3.48-1.22-5.82-4.66-7.75-7.83-1.09-1.79-4.45-3.79-1.64-6.12s6.5-3.59,8.75,1.36a10.44,10.44,0,0,0,1.79,2.14c1.59-1.95-2.59-4.4.55-5.64,4.06-1.6,5.26,2.17,7.46,5-.64-5.1.86-6.53,5.55-4.5,1.69.73,2.37,9.05,5.93,1.33,1.79,1.1,4.94,2,5.16,3.35,1.27,7.86,8.49,7.6,13.36,9.89,9.52,4.48,14.77,12.62,20.14,20.83,1.14,1.74,2.13,4.28.22,5.9s-4.45,3.85-7,2.43c-2.94-1.63-7-.91-8.49-1.8-6-3.61-14.43-3.3-18-10.69-3.15-1.95-4.06-5.92-6.76-7.57C458.68,213.93,466,214.26,460.89,218.28Z"/><path class="cls-57" d="M614.82,260.77c2,2.31,4.95,3.74,6.15,7.21-8.2,2.23-14.74.61-19.29-6.82a13.78,13.78,0,0,1-7-12.13,2.12,2.12,0,0,1,1.61-1.37c2.77.68,3,3.37,4.92,5.5-5.92-8.32-11.78-16.11-13.52-26-1.68-2.34-3.67-4.53,1.65-4.72,7.77-.28,12,4.56,15.88,10.14,2.68,3.82,3.62,8.72,7.51,12.12,1-3.47-2.75-5.08-2.65-8.55,5.81,3.05,7.41,9.18,11.18,13.4.71.8-.08.18.68.28,1.49.2,1.44,5.34,4.09,1.31,3.67,2.48,5.67,6.27,7.64,10,.91,1.71,2.9,3.67.54,5.66a5,5,0,0,1-6,.49c-4.05-2.53-7.92-5.34-11.86-8-2.82-.69-5.15-2.13-6.1-3.52C611.12,256.91,613.38,258.48,614.82,260.77Z"/><path class="cls-58" d="M411.64,184.28c9.45,1.43,15.44,7.32,19.54,15.45,1,2,4.76,4.5,1.24,6.53s-3.77-2.32-5.07-4.31a9.14,9.14,0,0,1-3.13-3.6,29.91,29.91,0,0,1,1.54,5.15c-2.93,6-7.07,3.06-11,1.46-3.34-1.61-4.83-4.58-5.85-7.91.53,2.16,2,4,2.54,6.06.86,3-1.08,2.92-3.16,2-7.15-2.44-8.62-9.39-11.56-14.94-2.56.05-.11,5.82-2.31,3.05-4.66-5.88-12-7.71-16.64-13.14-1.33-1.56-3.43-3.38-1.45-5.42,2.41-2.48,2.82.35,3.54,1.9,1.93-3.39,5.69-2.31,8.42-3.55s6.36-1.37,7.25.39c2.93,5.76,11.14,5.69,12.81,12.38C410.62,187.53,410.62,187.53,411.64,184.28Z"/><path class="cls-59" d="M363.22,187c-6.63-3.67-13.81-6.39-19.61-11.53-4.36-3.85-8.57-7.42-15.18-7.77a14.94,14.94,0,0,1-11.18-6.2c1.35-1.65,2.67-1.06,3.9-1,6,.19,12,4.33,18.2,0,1.8-1.24,4.69-.78,6.44,1.48,1.18-.82,3,4.74,4-.46.18-1,2.8-.78,4.23.19a37.3,37.3,0,0,1,8,8.72c2.1,3,3.61,6.14,8.18,7.07,3,.61,6,5,4.15,8.09-1.4,2.34-5.72,2.45-8-1.13-2.22-1-3.16-3.29-4.65-4.73C362.7,182,366,183.8,363.22,187Z"/><path class="cls-57" d="M578,249.66c-5.45-4.32-9.1-10.1-12.67-15.89-1.77-2.87-6.17-6.27-2.88-9.2,2.54-2.27,7.55-1.42,10.61,2,2.37-.15,3.21,2.08,4.74,3.08-1-1.77-4-2.47-2.91-5.42,4.75-.93,8,1.67,11,4.76,5.16,5.4,9.42,11.25,9.65,19.13l.06,0c-2.3,4.14,1.9,6.47,2.78,9.73.65,2.43.92,2.35-1.32,4.83-6.9-2.72-11.5-7.74-14.4-14.45-2.37-2.49-2.66-6.12-4.61-8.5C578.39,242.86,584.21,246.18,578,249.66Z"/><path class="cls-60" d="M263.11,147.72c4.85,3,8.31,3.12,12.46,1.71,13.64-4.61,24.3,1.49,33.63,10.76,3.18,3.16,5.81,6.88,8.81,10.48-7.46,1.43-10.26-5.86-15.63-8.27-9.66-4.34-19.16-9-30.06-6.71C266.48,156.92,264,155,263.11,147.72Z"/><path class="cls-2" d="M635.47,339.27c11.64-13.31,25.14-24.74,37.6-37.22,1.65-1.65,3.7-3,4.34-5.49a1.19,1.19,0,0,0,1.25-.82c1.2.63,6.26-1.69,2.74,2.58a302.14,302.14,0,0,1-39,39.86,123.6,123.6,0,0,0-11.82,10.58c-.62.25-1.27.48-1.7-.25-.17-.28,0-.72.33-1.14Z"/><path class="cls-61" d="M651.39,193.82c-6.86-5.7-14.34-10.52-23.59-15.87,9.4.53,15.5,4.69,21.94,7.88a18.56,18.56,0,0,1,9.87,5.58c1.2,1.3,2.29,3.79,5,2.28,4.4,1.2,6.79,4.37,8.65,9.87-4.84-5.35-8.1.57-12.17,0C659.5,198.68,653.39,198.28,651.39,193.82Z"/><path class="cls-62" d="M240.33,136.29c7,3.29,14.95,5.65,17.32,15.94-6.25-3-11.43-5.4-13.91-11.2C240.15,141.22,239.09,139.58,240.33,136.29Z"/><path class="cls-2" d="M677.13,296.16c-5.25,1.62-8.41,6.31-13,8.84-.57.32-2,2.69-2.41-.25a6.47,6.47,0,0,1,.61-2.28c2.29-2.77,3.61-6.45,7-8.14C672.32,292.86,675.62,291,677.13,296.16Z"/><path class="cls-63" d="M240.33,136.29c.33,2.16.6,4.36,3.41,4.74-4.22,2.66-7.67-.55-11.41-1.5-1.23-1.52-3.56-1.54-4.55-3.37C232,130.81,236.17,134.26,240.33,136.29Z"/><path class="cls-64" d="M595.5,248.14c-1.32-7.33-6.67-12.64-9.65-19.13l1.82-1.81c6.77,8.9,9.13,20.31,16.71,28.79C600,254.77,599.23,249.87,595.5,248.14Z"/><path class="cls-65" d="M544.24,250.05c1.3-.45,5.16-.15,1.07-2.49-6.12-3.5-9.27-9.33-12.4-15.41,5,7.45,13.31,11.23,19.17,17.72C549.46,249.5,546.94,253.63,544.24,250.05Z"/><path class="cls-66" d="M221.14,137.61c-7.09,1.1-13.9.94-19.67-4.31,6.05,4.61,14-3.5,19.68,3,.56.29.75.58.56.86S221.33,137.61,221.14,137.61Z"/><path class="cls-67" d="M655.89,213.5l-12-7.77c5.81-2,9.6,5.09,15.09,2.73,2.26-.28,4.77.12,4.48,2.74-.31,2.82-2.76,1.24-4.34.84A2.63,2.63,0,0,0,655.89,213.5Z"/><path class="cls-68" d="M661.18,278.41c1-7.16-4.83-12-6-18.55,5.48,5.16,7.69,12.18,10.51,18.85C664,281.34,662.39,283.19,661.18,278.41Z"/><path class="cls-69" d="M667.75,247.7c-1.68,5,4.55,7.38,3.43,12.31-2.29-5-9.67-7.25-7.17-14.78A4.78,4.78,0,0,1,667.75,247.7Z"/><path class="cls-70" d="M597,262.66c2.18-5.46-2.86-8.65-4.15-13-.64-2.16-.76-2.13,2.69-1.54.53,5.06,4.79,8.38,6.12,13.06C600.36,262.39,600.41,267.87,597,262.66Z"/><path class="cls-71" d="M578,249.66c4.06-6.46-3.2-9.68-5-15.86,5.79,4.21,8.5,8.79,9.64,14.41C580.93,248.23,580.92,253.68,578,249.66Z"/><path class="cls-72" d="M408.28,205.1c3.2-4.69-2.2-7.8-2.19-13.87L414.75,205C412.6,205.66,410.5,208.26,408.28,205.1Z"/><path class="cls-73" d="M509.06,229.24c2-.42,2.47-1.34,1.4-3.24-1.33-2.39-3.58-4.57-2.34-8.36l7.71,11.08C513.62,229.47,511.53,231.92,509.06,229.24Z"/><path class="cls-74" d="M664.57,193.69c-3.43,3.09-4.62-1-6.6-2.17-2.84-1.73-5.49-3.78-8.23-5.69l1.62-1.52C656.84,185.93,659.82,191.06,664.57,193.69Z"/><path class="cls-75" d="M460.89,218.28c1.94-4.81-5.27-6-3.79-11.89,3.09,4.92,7.18,8,8.91,12.89C464.41,218.39,462.16,220.87,460.89,218.28Z"/><path class="cls-76" d="M651.39,193.82c3.6,2.88,9.1,3.88,9.66,9.77l-11.33-8Z"/><path class="cls-77" d="M614.82,260.77a22.4,22.4,0,0,1-9.55-11.08l11.06,9.62Z"/><path class="cls-78" d="M354,161.74c-8.26-.75-1.4,4.45-2.81,6.94a11.21,11.21,0,0,1-5.39-6.67C348.48,160.47,351.15,158.55,354,161.74Z"/><path class="cls-79" d="M555.58,246.47c-4.22-2.26-6.93-5.95-9-10.47l10.63,8.81Z"/><path class="cls-80" d="M363.22,187c.45-4.4-3.46-7.2-3.13-12l6.24,9.43C365,185,365.42,187.62,363.22,187Z"/><path class="cls-81" d="M626,251.18c-2.29,3.55,4,4.21,2.33,8a19.64,19.64,0,0,1-7.1-9.63C623.4,248.43,625.23,248.23,626,251.18Z"/><path class="cls-82" d="M221.14,137.61a1.74,1.74,0,0,1,0-1.29c1.33-1.41,2.56-3.3,4.33-.37.49.81,1.31,2.76,2.3.21a4.86,4.86,0,0,1,4.55,3.37C228.59,139,224.69,139.3,221.14,137.61Z"/><path class="cls-83" d="M521.88,229c-3.47-3.41-4.65-7.59-3.53-12.6q2.42,6.39,4.82,12.8l-.69.2Z"/><path class="cls-84" d="M425.76,203.5l-5.14-9.26a10.25,10.25,0,0,1,6.73,7.71Z"/><path class="cls-85" d="M574.86,224.25c1.6,3.73,5.91,5.81,6.46,11.62L573,226.59A2,2,0,0,1,574.86,224.25Z"/><path class="cls-86" d="M411.64,184.28c-.75,3.36,3.06,5.27,3.08,9.52-3.37-2.5-5.39-4.82-6.38-8C409.67,185.79,409.94,183.44,411.64,184.28Z"/><path class="cls-87" d="M659.59,251.36c3.22,1.71,2.68,5.28,3.76,8.11-2.7-2.14-4.85-4.63-5.35-8.23Z"/><path class="cls-2" d="M667.74,347.75C653.49,384,647,422.39,636.08,459.54c-6.54,22.2-16.85,43-26.45,64a21.58,21.58,0,0,1-8.78,10.22,124.91,124.91,0,0,1,17.63-40.13c10.24-15.68,13.72-33.36,17.19-50.94,6.59-33.48,14.58-66.39,30.31-97C667.6,345.5,668.45,345.94,667.74,347.75Z"/><path class="cls-2" d="M664.28,339.31c-18.67,29.15-29.5,61.05-33.42,95.36-1.18,10.35-4.18,20.22-7.93,30.13a45.06,45.06,0,0,1-1.06-20.46c2.19-12.56,7.56-24.47,9.27-37,3.63-26.56,16.32-48.55,31.64-69.55C664.17,337.42,664.8,337.78,664.28,339.31Z"/><path class="cls-2" d="M643.59,352.28c-11,14.64-14.1,32.21-18.46,49.33-6-20.74,3.92-36.39,16.67-51.15C643.38,350.09,644.05,350.63,643.59,352.28Z"/><path class="cls-88" d="M667.74,347.75c-.58-.67-1.17-1.33-1.76-2,.56-5.82,6.3-9.36,6.71-15.25a1.84,1.84,0,0,1,0-2c4.22-4.08,5.14-10.09,8.6-14.62,1.51-2,2-4.91,5.08-5.41.51.64,1,1.27,1.55,1.91,1.51,1.71-.07,2.5-1,3.47C680.75,325.3,672.47,335.52,667.74,347.75Z"/><path class="cls-89" d="M686.38,308.49c-4.45,7.49-7.77,15.67-13.81,22.15-2.11-2.45.63-3.84,1.26-5.68.57-2.13,2.4-4.24.1-6.41,3.51-4.14,6.57-8.81,10.67-12.25C687.88,303.54,685.76,307.69,686.38,308.49Z"/><path class="cls-90" d="M643.59,352.28c-.59-.61-1.19-1.21-1.79-1.82l22.46-25.61,1.55,1.59Z"/><path class="cls-91" d="M673.83,325l-1.26,5.68.12-.13c-4,1.79-4.54,6.89-8.41,8.8l-1.5-1.48C665.93,333.08,668.92,328.2,673.83,325Z"/><path class="cls-92" d="M686.88,313.87l1-3.47,6.65-11.66c-.76,7.8-3.16,13.26-6,18.6Z"/><path class="cls-93" d="M629.23,347.37l1.37,1.39-7.17,10.92A17.47,17.47,0,0,1,629.23,347.37Z"/><path class="cls-94" d="M617.86,96.23l-1.65,1.7c-14.3-4.31-27.89-9.71-35.54-24.28C592.11,82.82,606,87.87,617.86,96.23Z"/><path class="cls-95" d="M667.59,448.24l-1.38-1.64a240.25,240.25,0,0,1,17.2-35.43c.31,1.19.17,2.59,1.57,3.25Z"/><path class="cls-96" d="M704.53,384.35l-1.65-1.73q2.65-7.28,5.29-14.54A22.74,22.74,0,0,1,704.53,384.35Z"/><path class="cls-97" d="M824.14,384.3c-13.24,2.17-25.77-2.23-39.91-3.73,11.85-5.77,21.93.14,32.22.83C818.52,383.69,822.51,380.86,824.14,384.3Z"/><path class="cls-98" d="M783.93,391.74c-3.58,4.36-4.73,9.3-4.87,15.36-3.55-2.24-7.73-3.87-6.94-7.84C773.23,393.78,778.5,392.45,783.93,391.74Z"/><path class="cls-99" d="M806.19,400.93c.68,5.57-1.74,7.51-7.63,9.69Z"/><path class="cls-100" d="M856.27,205.29c6.08-10.4,15.35-14.27,26.56-18.68C875.25,196.38,866.92,201.64,856.27,205.29Z"/><path class="cls-101" d="M675.62,281.6c-3.58,2.73-4.67-.56-5.78-2.68-1.52-2.9-2.53-6.07-4.09-9.94,6,3.18,4.69,10.29,9.89,12.69Z"/><path class="cls-102" d="M709.26,284.11c-5.45-2.35-8-5.26-9.29-9.51C702.6,277.47,707,278.53,709.26,284.11Z"/><path class="cls-103" d="M482.34,209.48c3.49,3.4,6.53,7.05,7.32,12C485.67,218.39,482.93,214.56,482.34,209.48Z"/><path class="cls-104" d="M599.14,235.8l-9.72-11.24C596.52,225.81,597.74,229.64,599.14,235.8Z"/><g id="nXYaBO.tif"><path class="cls-105" d="M67.37,146.33c-3.85.3-5-3.23-6.75-5.44-5.8-7.11-11.25-14.5-16.85-21.77C36.54,109.73,29.37,100.27,22,91,15.81,83.15,9.66,75.3,3.89,67.16c-2.15-3-2-3.66,1.7-4.61,8.12-2.09,16.23-4.2,24.37-6.21,13.66-3.36,27.37-6.51,41-10,6.25-1.61,12.64-2.68,18.78-4.8a4.12,4.12,0,0,1,4.32,1.71c3.5,5.76,7.49,11.18,10.94,17,3.69,6.19,8.07,12,12.06,18,3,4.45,5.78,9,8.73,13.49,5.07,7.67,9.7,15.63,15.2,23,2.39,3.21,1.63,5-2.11,6.23-7,2.29-13.83,4.8-20.71,7.29C107.65,132,97.1,135.69,86.7,139.74c-5.61,2.19-11.57,3.36-16.93,6.2A2.38,2.38,0,0,1,67.37,146.33Z"/><path class="cls-106" d="M54,174.59c-1.54,4-3,8.08-4.7,11.95-.23.51-1.65,2.08-3.18,1.09a2.63,2.63,0,0,1-1.27-3.34c1.29-3.56,2.62-7.11,3.95-10.67a2.87,2.87,0,0,1,3.47-1.83C53.89,172,53.34,173.69,54,174.59Z"/><path class="cls-106" d="M110.58,15c-2.68.22-2.87-1.89-2.48-3.3a71.18,71.18,0,0,1,3.62-9.59C112.26.84,113.23-.5,115,.19S116.9,2.51,116.4,4c-1.07,3.24-2.55,6.36-3.46,9.64C112.47,15.31,111.18,14.35,110.58,15Z"/><path class="cls-107" d="M104.12,158.94c-.27,1,.25,2.29-1,2.2-.83-.06-2.09.15-2.51-1-1.16-3.16-2.21-6.36-3.37-9.52-.42-1.15.27-1.59,1.08-1.86a2.2,2.2,0,0,1,2.94,1.3C102.33,153.07,103.23,156.14,104.12,158.94Z"/><path class="cls-108" d="M141.48,56.16c0,.16-1,.42-1.79.91-2,1.26-4,2.41-5.88,3.78-1.39,1-2.66.3-3.63-.31-.67-.43-.11-2,.42-2.38,2.74-1.68,5-4.19,8.21-5.09C140.41,52.62,141.69,53.62,141.48,56.16Z"/><path class="cls-109" d="M59.27,22.75c1.71-.61,2,1.64,2.13,2.69A34.62,34.62,0,0,0,63,31.87c.47,1.42.08,2.61-1,3a2.26,2.26,0,0,1-2.83-1.61c-.83-3-1.52-6-2.13-9C56.91,23.32,57.58,22.73,59.27,22.75Z"/><path class="cls-110" d="M28.19,125.27a11.16,11.16,0,0,1-5.54,4.14c-1.55.6-2.72,3.31-5.14,1.33-1.15-1-1.79-1.46-.16-2.41,2.79-1.62,5.13-4,8.22-5.14C27.16,122.58,28.27,123.2,28.19,125.27Z"/><path class="cls-111" d="M71.4,72.17c-2.05,4.19-4,5-9.79,3.46-8.73-2.25-17.6-3.84-26.36-5.87C28.69,68.24,22,67,14.83,65c11.47-3,22.2-6.11,33.11-8.42,7.16-1.52,14.27-3.34,21.38-5C74,50.54,79,50.06,83.45,48a1.68,1.68,0,0,1,2,0c1,.88.09,1.68-.27,2.19-3.56,5-5.8,10.83-9.85,15.52a14.83,14.83,0,0,0-1.61,3.06C72.55,69.62,72.76,71.43,71.4,72.17Z"/><path class="cls-112" d="M60.3,109.2c-3.44-3.48-2.45-7.37-.35-10.77q4.36-7.05,8.58-14.19A4.49,4.49,0,0,1,73.85,82c6.52,1.92,13.24,2.86,19.82,4.46,1.38.33,3.86.34,3.87,1.72a8.37,8.37,0,0,1-2.24,5.32c-2.76,3-3.91,6.79-6.29,10-3.08,4.12-5.49,8.74-8.18,13.14-4.29,1.46-8.51,1.25-12.25-1.3C65.76,113.33,63,111.27,60.3,109.2Z"/><path class="cls-113" d="M128.1,120c-6.53,2.29-13.1,4.44-19.56,6.9-11,4.2-22.37,7.5-33.18,12.26-1,.44-2.28.22-3.72.32,5-7.75,9.13-15.68,14.33-23,7.89-1.26,15.77,0,23.65.09a18.25,18.25,0,0,0,5.67-.46c3.27-.57,6.44.43,9.66.65C126.54,116.94,128.72,117.34,128.1,120Z"/><path class="cls-114" d="M21.4,70.78c7.12,1.69,14.33,2.94,21.43,4.79S57.3,78.5,64.56,79.83a1.67,1.67,0,0,1,1.38.9c.38.78-.29,1.14-.67,1.74-3.13,5-6.11,10.1-9.13,15.17-1.55,1.72-2.83,2.09-5,.34C43.8,92,36.05,86.6,28.78,80.52c-2.81-2.36-6.07-4.24-8.84-6.71-.8-.71-2.71-.74-2.05-2.42S20.21,71,21.4,70.78Z"/><path class="cls-113" d="M59,131.17c-4-5-8.16-9.87-12-15s-7.61-9.79-11.27-14.79c-5.62-7.66-11.55-15.1-17.34-22.63-.58-.85-1.78-1.75-.55-2.75.87-.71,1.82.13,2.55.75C29.53,84.46,39.51,91,48.33,99c1.74,1.59,3.84,2.87,5.6,4.51,2.37,8,3.62,16.21,6.49,24,.39,1.05.12,2.34.16,3.51A1.16,1.16,0,0,1,59,131.17Z"/><path class="cls-114" d="M91.84,106.46c2.7-5.24,6.54-9.81,9-15.24.42-1,1.43-2.07,3.35-.3,5.39,5,11.32,9.37,17,14,3.12,2.57,6.14,5.24,9.21,7.87-.1,2-1.66,2.31-3,2.1-6.17-1-12.42-1.47-18.55-2.6-3.67-.67-7.37-1.14-11-1.71-2.31-.36-4.52-.76-6.15-2.61A1.36,1.36,0,0,1,91.84,106.46Z"/><path class="cls-112" d="M77.38,70.21c1.11-.43.32-1.88,1.29-2.38,1.41-.72,1.16-2.56,2.34-3.43,2.6-4.64,6.28-8.63,8.24-13.67.13-.34.89-.78,1.12-.67a2.2,2.2,0,0,1,1.13,1.22c2.2,9.49,4.38,19,6.4,28.51.17.79,1.68,1,.78,2.33-.31.45.67,1.63-1,1.24C90.85,81.81,84,80.42,77.24,78.8c-4.27-1-4.24-1.15-2.08-5C76.27,72.86,76.25,71.18,77.38,70.21Z"/><path class="cls-115" d="M98,57.48l30.66,47.07c-4-1.45-6.46-3.8-8.74-5.85-4.56-4.1-9.55-7.67-14.06-11.81a8,8,0,0,1-2.8-4.27c-1.73-7.66-3.58-15.3-5.37-23A10.73,10.73,0,0,1,98,57.48Z"/><path class="cls-2" d="M60.3,109.2c3.38-.31,5.55,2.55,7.38,4.19,3.88,3.47,7.88,2.94,12.16,2.72.32,0,.66.28,1,.43-.8,2.68-2.59,4.91-4,7.16-1.1,1.73-1.93,3.64-3.1,5.33-1.4.72-1.16,2.55-2.33,3.43-1.05.42-.63,1.72-1.63,2.49s-1.29,3.19-2.52,2.89c-1.39-.34-1.19-2.56-1.55-4q-2.55-10.37-5.3-20.69C60,111.77,59.58,110.52,60.3,109.2Z"/><path class="cls-116" d="M53.93,103.52c-4.21-.87-6.57-4.47-9.67-6.88C37.58,91.43,31,86.09,24.08,81.17c-2-1.45-3.78-3.3-6.15-5.41.26,1.5.39,2.27.52,3C15,76.2,13.63,72,11,68.48c3.34,1.67,7.21.28,10.45,2.3-.35.68-.88.7-1.51.44a1.12,1.12,0,0,0-1.49.29c8,6.3,16,12.65,24.11,18.86C46,93.09,49.8,95.49,53,98.62c1.28,1.25,1.61-2.07,3.13-1C55.79,99.74,52.52,100.75,53.93,103.52Z"/><path class="cls-117" d="M91.84,107.82c4.07,2.14,8.6,2,13,2.7,3,.47,6,1.07,9,1.56,4.6.74,9.29.84,13.81,2.15a2.52,2.52,0,0,0,2.72-1.39c2.36-.3,2.58,2.29,4.15,3.14.47.25.42,1.73-.76,1.93-2,.36-3.5,2.13-5.64,2.12-.66-2.65-2.83-2.33-4.81-2.51-2.74-.25-5.47-.63-8.21-1-2.14.61-4.36.1-6.34-.33-6.09-1.33-12.28-1.74-18.4-2.71-.76-.12-1.85-.07-1.48-1.43-.18-.86.54-1.36.85-2C90.45,109.36,90.65,108.12,91.84,107.82Z"/><path class="cls-118" d="M88.86,112.1c4.44,1.4,9.13,1.33,13.68,2.31,4.11.9,8.41,1.07,12.54,2.16-1,2-3.13,1.33-4.44,1.2-7-.72-14-.6-21-.89-1.21,0-2.67,1.61-3.71-.33l.12-.63c1.06-1,1.06-2.63,2.16-3.6A1.94,1.94,0,0,1,88.86,112.1Z"/><path class="cls-119" d="M81,64.4c-.16,1.57-.38,3.09-2.34,3.43C79.08,66.43,79,64.72,81,64.4Z"/><path class="cls-120" d="M71.4,72.17c.47-1.34.32-3.12,2.33-3.42C73.59,70.33,73.35,71.83,71.4,72.17Z"/><path class="cls-119" d="M77.38,70.21a3.73,3.73,0,0,1-2.22,3.64C75.31,72.28,75.33,70.63,77.38,70.21Z"/><path class="cls-121" d="M91.84,107.82c-.65.82-.75,2.14-2.13,2.27.32-1.44,0-3.25,2.13-3.63Z"/><path class="cls-122" d="M88.25,112.32c0,1.62-.45,3-2.16,3.6C86.26,114.39,86.19,112.71,88.25,112.32Z"/><path class="cls-123" d="M71.37,132.46c.13-1.58.47-3,2.33-3.43C73.24,130.39,73.43,132.19,71.37,132.46Z"/><path class="cls-124" d="M59,131.17l1.55-.1a5.07,5.07,0,0,1,1.13,3.71C60.44,133.54,59.37,132.67,59,131.17Z"/></g></svg>